<svg width="145" height="24" viewBox="0 0 145 24" fill="none" xmlns="http://www.w3.org/2000/svg">
<path d="M12 0L14.7508 8.2138L23.4127 8.2918L16.4509 13.4462L19.0534 21.7082L12 16.68L4.94658 21.7082L7.54906 13.4462L0.587322 8.2918L9.24916 8.2138L12 0Z" fill="#F2C500"/>
<path d="M42 0L44.7508 8.2138L53.4127 8.2918L46.4509 13.4462L49.0534 21.7082L42 16.68L34.9466 21.7082L37.5491 13.4462L30.5873 8.2918L39.2492 8.2138L42 0Z" fill="#F2C500"/>
<path d="M72 0L74.7508 8.2138L83.4127 8.2918L76.4509 13.4462L79.0534 21.7082L72 16.68L64.9466 21.7082L67.5491 13.4462L60.5873 8.2918L69.2492 8.2138L72 0Z" fill="#F2C500"/>
<path d="M103 0L105.751 8.2138L114.413 8.2918L107.451 13.4462L110.053 21.7082L103 16.68L95.9466 21.7082L98.5491 13.4462L91.5873 8.2918L100.249 8.2138L103 0Z" fill="#F2C500"/>
<path d="M133 0L135.751 8.2138L144.413 8.2918L137.451 13.4462L140.053 21.7082L133 16.68L125.947 21.7082L128.549 13.4462L121.587 8.2918L130.249 8.2138L133 0Z" fill="#F2C500"/>
</svg>
