<svg width="997" height="182" viewBox="0 0 997 182" fill="none" xmlns="http://www.w3.org/2000/svg">
<path d="M953.598 93.6118L996.395 173.388C998.321 177.372 995.419 182 990.993 182L722.101 182C719.885 182 717.849 180.778 716.806 178.822L670.705 93.822C669.765 92.0581 669.765 89.9419 670.705 88.178L716.806 3.17797C717.849 1.22195 719.885 -6.29139e-06 722.101 -6.48516e-06L990.993 -2.99925e-05C995.419 -3.03793e-05 998.321 4.62753 996.395 8.61179L953.598 88.3882C952.801 90.038 952.801 91.962 953.598 93.6118Z" fill="#8DCFFF"/>
<rect x="327" y="182" width="327" height="182" rx="30" transform="rotate(180 327 182)" fill="#A5C8B7"/>
<path d="M669.518 92.5C670.347 92.5 671.018 91.8284 671.018 91C671.018 90.1716 670.347 89.5 669.518 89.5V92.5ZM346 84.3397C346 83.5113 344.985 82.9255 344.268 83.3397L332.732 90C332.015 90.4142 332.015 91.5858 332.732 92L344.268 98.6603C344.985 99.0745 346 98.4887 346 97.6603V84.3397ZM669.518 89.5H344.5V92.5H669.518V89.5Z" fill="#1E1E1E"/>
</svg>
