<svg width="929" height="98" viewBox="0 0 929 98" fill="none" xmlns="http://www.w3.org/2000/svg">
<g filter="url(#filter0_d_1307_1581)">
<rect x="7" y="6" width="265" height="84" rx="4" fill="white"/>
</g>
<path d="M91.56 69.36L92.344 67.328C92.7387 67.4987 93.1173 67.6267 93.48 67.712C93.8427 67.7973 94.2053 67.84 94.568 67.84C94.9413 67.84 95.2507 67.808 95.496 67.744C95.752 67.6693 95.944 67.5627 96.072 67.424C96.2 67.2853 96.264 67.12 96.264 66.928C96.264 66.7467 96.2053 66.496 96.088 66.176C95.9813 65.856 95.784 65.44 95.496 64.928C95.208 64.4053 94.7867 63.76 94.232 62.992L96.136 61.728C96.648 62.4533 97.0907 63.1627 97.464 63.856C97.8373 64.5387 98.1253 65.1787 98.328 65.776C98.5413 66.3627 98.648 66.88 98.648 67.328C98.648 67.8827 98.4987 68.368 98.2 68.784C97.912 69.1893 97.48 69.5093 96.904 69.744C96.3387 69.9787 95.64 70.096 94.808 70.096C94.4987 70.096 94.152 70.0693 93.768 70.016C93.384 69.9627 92.9947 69.8827 92.6 69.776C92.216 69.6693 91.8693 69.5307 91.56 69.36ZM100.178 73.68L99.7136 71.44C100.471 71.344 101.132 71.2267 101.698 71.088C102.263 70.96 102.738 70.7787 103.122 70.544C103.506 70.3093 103.794 69.9893 103.986 69.584C104.178 69.168 104.274 68.6347 104.274 67.984C104.274 67.7493 104.252 67.5147 104.21 67.28C104.167 67.0347 104.103 66.8107 104.018 66.608C103.932 66.4053 103.82 66.24 103.682 66.112C103.554 65.984 103.399 65.92 103.218 65.92C103.026 65.92 102.855 65.9893 102.706 66.128C102.556 66.256 102.439 66.4213 102.354 66.624C102.268 66.816 102.226 67.0133 102.226 67.216C102.226 67.3653 102.263 67.4933 102.338 67.6C102.412 67.696 102.524 67.7707 102.674 67.824C102.823 67.8667 103.01 67.888 103.234 67.888C103.49 67.888 103.751 67.8613 104.018 67.808C104.295 67.744 104.546 67.6587 104.77 67.552L104.834 69.296C104.578 69.4987 104.284 69.68 103.954 69.84C103.623 69.9893 103.223 70.064 102.754 70.064C102.37 70.064 102.012 70.0213 101.682 69.936C101.351 69.84 101.058 69.696 100.802 69.504C100.556 69.312 100.364 69.0667 100.226 68.768C100.087 68.4587 100.018 68.0907 100.018 67.664C100.018 67.1413 100.103 66.6347 100.274 66.144C100.444 65.6533 100.679 65.216 100.978 64.832C101.287 64.4373 101.639 64.128 102.034 63.904C102.439 63.6693 102.866 63.552 103.314 63.552C103.847 63.552 104.311 63.6853 104.706 63.952C105.111 64.2187 105.447 64.5707 105.714 65.008C105.98 65.4347 106.183 65.8987 106.322 66.4C106.46 66.9013 106.53 67.3813 106.53 67.84C106.53 69.0453 106.274 70.0693 105.762 70.912C105.25 71.7547 104.519 72.4053 103.57 72.864C102.62 73.3333 101.49 73.6053 100.178 73.68ZM107.49 73.696L106.674 71.712C107.24 71.52 107.757 71.296 108.226 71.04C108.706 70.784 109.122 70.5013 109.474 70.192C109.826 69.8827 110.098 69.5467 110.29 69.184C110.482 68.8107 110.578 68.4107 110.578 67.984C110.578 67.536 110.477 67.0453 110.274 66.512C110.072 65.9787 109.826 65.4347 109.538 64.88L111.634 63.872C111.826 64.2027 111.992 64.56 112.13 64.944C112.28 65.3173 112.402 65.6533 112.498 65.952C112.594 66.2507 112.658 66.4533 112.69 66.56C112.84 67.072 113.042 67.4133 113.298 67.584C113.565 67.7547 113.992 67.84 114.578 67.84C114.984 67.84 115.272 67.9467 115.442 68.16C115.624 68.3627 115.714 68.6187 115.714 68.928C115.714 69.2587 115.602 69.536 115.378 69.76C115.154 69.9733 114.834 70.08 114.418 70.08C113.981 70.08 113.597 70.016 113.266 69.888C112.936 69.76 112.669 69.5733 112.466 69.328C112.274 69.0827 112.152 68.7947 112.098 68.464L112.69 68.8C112.626 69.3653 112.44 69.8987 112.13 70.4C111.832 70.912 111.442 71.3813 110.962 71.808C110.482 72.2347 109.944 72.608 109.346 72.928C108.749 73.248 108.13 73.504 107.49 73.696ZM126.614 70.08C126.07 70.08 125.547 70.032 125.046 69.936C124.544 69.8293 124.091 69.6907 123.686 69.52C123.291 69.3493 122.966 69.1573 122.71 68.944L124.15 67.392C124.534 67.552 124.928 67.6693 125.334 67.744C125.739 67.808 126.219 67.84 126.774 67.84C127.179 67.84 127.467 67.9467 127.638 68.16C127.819 68.3627 127.91 68.6187 127.91 68.928C127.91 69.2587 127.798 69.536 127.574 69.76C127.35 69.9733 127.03 70.08 126.614 70.08ZM114.438 70.08L114.598 67.84H118.182C119.184 67.84 120.016 67.8027 120.678 67.728C121.35 67.6533 121.883 67.5467 122.278 67.408C122.672 67.2587 122.95 67.088 123.11 66.896C123.28 66.704 123.366 66.496 123.366 66.272C123.366 66.0693 123.318 65.8773 123.222 65.696C123.126 65.504 122.982 65.3493 122.79 65.232C122.598 65.1147 122.347 65.056 122.038 65.056C121.643 65.056 121.248 65.152 120.854 65.344C120.459 65.5253 120.075 65.776 119.702 66.096C119.328 66.4053 118.971 66.752 118.63 67.136C118.299 67.52 117.995 67.9093 117.718 68.304L115.302 67.968C115.75 67.2747 116.235 66.6187 116.758 66C117.291 65.3707 117.851 64.8213 118.438 64.352C119.035 63.872 119.648 63.4987 120.278 63.232C120.918 62.9547 121.568 62.816 122.23 62.816C122.934 62.816 123.536 62.96 124.038 63.248C124.539 63.536 124.923 63.9307 125.19 64.432C125.467 64.9333 125.606 65.5147 125.606 66.176C125.606 66.8693 125.408 67.4933 125.014 68.048C124.63 68.6027 123.974 69.0613 123.046 69.424C122.651 69.5733 122.224 69.696 121.766 69.792C121.307 69.888 120.768 69.9573 120.15 70C119.531 70.0533 118.79 70.08 117.926 70.08H114.438ZM116.102 68.448L115.766 58.288H118.006L118.294 65.968L116.102 68.448ZM126.625 70.08L126.785 67.84C127.276 67.84 127.628 67.792 127.841 67.696C128.054 67.5893 128.182 67.3973 128.225 67.12C128.268 66.832 128.278 66.416 128.257 65.872L127.969 58.288H130.225L130.545 66.032C130.566 66.6507 130.54 67.2107 130.465 67.712C130.401 68.2027 130.236 68.624 129.969 68.976C129.713 69.328 129.313 69.6 128.769 69.792C128.236 69.984 127.521 70.08 126.625 70.08ZM132.655 70L132.319 58.288H134.559L134.895 70H132.655ZM140.125 76.288C139.879 75.4133 139.677 74.5813 139.517 73.792C139.357 73.0133 139.239 72.304 139.165 71.664C139.09 71.0347 139.053 70.5067 139.053 70.08C139.053 69.1307 139.202 68.288 139.501 67.552C139.81 66.8053 140.205 66.1653 140.685 65.632C141.175 65.088 141.698 64.64 142.253 64.288C142.818 63.936 143.362 63.6747 143.885 63.504C144.418 63.3333 144.871 63.248 145.245 63.248C145.629 63.248 145.943 63.3493 146.189 63.552C146.445 63.7547 146.669 64.048 146.861 64.432C147.063 64.8053 147.277 65.2587 147.501 65.792C147.757 66.368 147.981 66.8053 148.173 67.104C148.375 67.392 148.583 67.5893 148.797 67.696C149.01 67.792 149.25 67.84 149.517 67.84C149.922 67.84 150.215 67.9467 150.397 68.16C150.578 68.3627 150.669 68.6187 150.669 68.928C150.669 69.2587 150.557 69.536 150.333 69.76C150.109 69.9733 149.783 70.08 149.357 70.08C148.834 70.08 148.381 69.9947 147.997 69.824C147.613 69.6427 147.266 69.3867 146.957 69.056L147.405 68.56C147.308 68.8907 147.175 69.1893 147.005 69.456C146.845 69.712 146.626 69.9147 146.349 70.064C146.082 70.2133 145.746 70.288 145.341 70.288C144.978 70.288 144.615 70.2347 144.253 70.128C143.901 70.0213 143.554 69.8613 143.213 69.648C142.882 69.4347 142.562 69.1733 142.253 68.864C141.943 68.544 141.65 68.176 141.373 67.76L141.965 67.648C141.73 68.0107 141.559 68.416 141.453 68.864C141.346 69.312 141.293 69.7547 141.293 70.192C141.293 70.5333 141.319 70.928 141.373 71.376C141.437 71.8347 141.517 72.3147 141.613 72.816C141.709 73.328 141.815 73.8293 141.933 74.32C142.061 74.8213 142.183 75.28 142.301 75.696L140.125 76.288ZM145.309 68.032C145.511 68.032 145.671 68.0053 145.789 67.952C145.917 67.888 145.997 67.7973 146.029 67.68C146.071 67.5627 146.061 67.424 145.997 67.264C145.89 66.976 145.783 66.7253 145.677 66.512C145.581 66.2987 145.485 66.1173 145.389 65.968C145.303 65.8187 145.213 65.7067 145.117 65.632C145.031 65.5573 144.941 65.52 144.845 65.52C144.706 65.52 144.535 65.568 144.333 65.664C144.13 65.7493 143.927 65.856 143.725 65.984C143.522 66.112 143.351 66.24 143.213 66.368C143.074 66.4853 142.994 66.576 142.973 66.64L142.781 66.112C142.973 66.4853 143.202 66.8213 143.469 67.12C143.746 67.408 144.045 67.632 144.365 67.792C144.685 67.952 144.999 68.032 145.309 68.032ZM149.391 70.08L149.551 67.84C149.935 67.84 150.265 67.8027 150.543 67.728C150.82 67.6533 151.055 67.504 151.247 67.28C151.439 67.0453 151.599 66.704 151.727 66.256C151.865 65.808 151.988 65.2107 152.095 64.464L154.191 64.816C154.169 64.976 154.137 65.1627 154.095 65.376C154.063 65.5893 154.031 65.808 153.999 66.032C153.977 66.2453 153.967 66.448 153.967 66.64C153.967 66.832 154.004 67.0027 154.079 67.152C154.153 67.3013 154.271 67.4293 154.431 67.536C154.601 67.632 154.82 67.7067 155.087 67.76C155.364 67.8133 155.7 67.84 156.095 67.84C156.5 67.84 156.788 67.9467 156.959 68.16C157.129 68.3627 157.215 68.6187 157.215 68.928C157.215 69.2587 157.103 69.536 156.879 69.76C156.665 69.9733 156.351 70.08 155.935 70.08C155.455 70.08 155.017 70.0427 154.623 69.968C154.239 69.8933 153.903 69.7707 153.615 69.6C153.337 69.4187 153.108 69.184 152.927 68.896C152.756 68.5973 152.649 68.2347 152.607 67.808H153.375C153.183 68.32 152.937 68.7307 152.639 69.04C152.351 69.3387 152.025 69.5627 151.663 69.712C151.3 69.8613 150.921 69.9573 150.527 70C150.143 70.0533 149.764 70.08 149.391 70.08ZM153.855 73.792C153.545 73.792 153.279 73.68 153.055 73.456C152.841 73.2427 152.735 72.9867 152.735 72.688C152.735 72.3787 152.841 72.112 153.055 71.888C153.279 71.664 153.545 71.552 153.855 71.552C154.153 71.552 154.409 71.664 154.623 71.888C154.836 72.112 154.943 72.3787 154.943 72.688C154.943 72.9867 154.836 73.2427 154.623 73.456C154.409 73.68 154.153 73.792 153.855 73.792ZM151.087 73.792C150.777 73.792 150.511 73.68 150.287 73.456C150.073 73.2427 149.967 72.9867 149.967 72.688C149.967 72.3787 150.073 72.112 150.287 71.888C150.511 71.664 150.777 71.552 151.087 71.552C151.385 71.552 151.641 71.664 151.855 71.888C152.068 72.112 152.175 72.3787 152.175 72.688C152.175 72.9867 152.068 73.2427 151.855 73.456C151.641 73.68 151.385 73.792 151.087 73.792ZM155.938 70.08L156.098 67.84C156.599 67.84 156.951 67.792 157.154 67.696C157.367 67.5893 157.495 67.3973 157.538 67.12C157.58 66.832 157.591 66.416 157.57 65.872L157.314 58.288H159.586L159.858 65.856C159.879 66.3893 159.943 66.8 160.049 67.088C160.156 67.376 160.332 67.5733 160.578 67.68C160.834 67.7867 161.175 67.84 161.602 67.84C162.007 67.84 162.295 67.9467 162.466 68.16C162.636 68.3627 162.722 68.6187 162.722 68.928C162.722 69.2587 162.61 69.536 162.386 69.76C162.162 69.9733 161.847 70.08 161.442 70.08C160.972 70.08 160.535 70.0267 160.13 69.92C159.724 69.8133 159.388 69.6107 159.122 69.312C158.855 69.0133 158.679 68.5813 158.594 68.016L159.298 68.032C159.116 68.5867 158.882 69.0133 158.594 69.312C158.306 69.6 157.943 69.8027 157.506 69.92C157.079 70.0267 156.556 70.08 155.938 70.08ZM161.438 70.08L161.598 67.84C161.95 67.84 162.238 67.8133 162.462 67.76C162.686 67.696 162.867 67.5627 163.006 67.36C163.155 67.1467 163.283 66.832 163.39 66.416C163.507 65.9893 163.635 65.4133 163.774 64.688L165.854 65.072C165.811 65.3067 165.752 65.6 165.678 65.952C165.614 66.304 165.582 66.608 165.582 66.864C165.582 67.0667 165.619 67.2427 165.694 67.392C165.779 67.5307 165.918 67.6427 166.11 67.728C166.312 67.8027 166.59 67.84 166.942 67.84C167.219 67.84 167.454 67.8133 167.646 67.76C167.848 67.696 168.019 67.5627 168.158 67.36C168.307 67.1467 168.435 66.8213 168.542 66.384C168.659 65.936 168.771 65.3333 168.878 64.576L170.99 64.912C170.947 65.1573 170.904 65.4187 170.862 65.696C170.819 65.9733 170.782 66.2293 170.75 66.464C170.718 66.6987 170.702 66.8907 170.702 67.04C170.702 67.1787 170.739 67.312 170.814 67.44C170.899 67.5573 171.048 67.6533 171.262 67.728C171.486 67.8027 171.795 67.84 172.19 67.84C172.67 67.84 173.022 67.7387 173.246 67.536C173.48 67.3227 173.598 67.0027 173.598 66.576C173.598 66.3307 173.592 66.0693 173.582 65.792C173.571 65.504 173.55 65.184 173.518 64.832C173.496 64.4693 173.454 64.0587 173.39 63.6L175.454 63.44C175.528 64.3573 175.614 65.104 175.71 65.68C175.806 66.256 175.934 66.704 176.094 67.024C176.264 67.3333 176.488 67.5467 176.766 67.664C177.054 67.7813 177.427 67.84 177.885 67.84C178.291 67.84 178.579 67.9467 178.75 68.16C178.931 68.3627 179.022 68.6187 179.022 68.928C179.022 69.2587 178.91 69.536 178.686 69.76C178.472 69.9733 178.152 70.08 177.726 70.08C177.438 70.08 177.139 70.0533 176.83 70C176.52 69.9573 176.222 69.8667 175.934 69.728C175.646 69.5787 175.39 69.3653 175.166 69.088C174.942 68.8107 174.766 68.4427 174.638 67.984L174.926 68.08C174.776 68.6133 174.574 69.024 174.318 69.312C174.062 69.6 173.747 69.8027 173.374 69.92C173 70.0267 172.552 70.08 172.03 70.08C171.55 70.08 171.123 70.016 170.75 69.888C170.376 69.76 170.078 69.552 169.854 69.264C169.64 68.9653 169.528 68.5653 169.517 68.064H170.062C169.848 68.6613 169.603 69.104 169.326 69.392C169.048 69.68 168.712 69.8667 168.318 69.952C167.923 70.0373 167.427 70.08 166.83 70.08C166.467 70.08 166.11 70.0427 165.758 69.968C165.406 69.8827 165.091 69.696 164.814 69.408C164.536 69.1093 164.334 68.64 164.206 68L165.07 67.968C164.846 68.5973 164.552 69.0613 164.19 69.36C163.838 69.6587 163.432 69.856 162.974 69.952C162.515 70.0373 162.003 70.08 161.438 70.08ZM177.734 70.08L177.894 67.84C178.534 67.84 179.025 67.808 179.366 67.744C179.708 67.68 179.942 67.5627 180.07 67.392C180.209 67.2107 180.278 66.9547 180.278 66.624C180.278 66.3253 180.236 65.968 180.15 65.552C180.076 65.136 179.974 64.704 179.846 64.256C179.729 63.808 179.601 63.3973 179.462 63.024L181.67 62.416C181.809 62.7787 181.942 63.2 182.07 63.68C182.198 64.16 182.305 64.656 182.39 65.168C182.476 65.6693 182.518 66.1547 182.518 66.624C182.518 67.3493 182.401 67.9413 182.166 68.4C181.932 68.848 181.601 69.1947 181.174 69.44C180.758 69.6853 180.257 69.856 179.67 69.952C179.084 70.0373 178.438 70.08 177.734 70.08ZM182.07 61.12C181.761 61.12 181.494 61.0133 181.27 60.8C181.057 60.576 180.95 60.3147 180.95 60.016C180.95 59.7067 181.057 59.44 181.27 59.216C181.494 58.992 181.761 58.88 182.07 58.88C182.369 58.88 182.625 58.992 182.838 59.216C183.052 59.44 183.158 59.7067 183.158 60.016C183.158 60.3147 183.052 60.576 182.838 60.8C182.625 61.0133 182.369 61.12 182.07 61.12ZM179.302 61.104C178.993 61.104 178.726 60.9973 178.502 60.784C178.289 60.56 178.182 60.2987 178.182 60C178.182 59.6907 178.289 59.424 178.502 59.2C178.726 58.976 178.993 58.864 179.302 58.864C179.601 58.864 179.857 58.976 180.07 59.2C180.284 59.424 180.39 59.6907 180.39 60C180.39 60.2987 180.284 60.56 180.07 60.784C179.857 60.9973 179.601 61.104 179.302 61.104Z" fill="#313A86"/>
<path d="M101.16 38.08C101.288 38.784 101.576 39.328 102.024 39.712C102.488 40.08 103.104 40.264 103.872 40.264C104.864 40.264 105.584 39.856 106.032 39.04C106.48 38.208 106.704 36.816 106.704 34.864C106.336 35.376 105.816 35.776 105.144 36.064C104.488 36.352 103.776 36.496 103.008 36.496C101.984 36.496 101.056 36.288 100.224 35.872C99.408 35.44 98.76 34.808 98.28 33.976C97.8 33.128 97.56 32.104 97.56 30.904C97.56 29.128 98.088 27.72 99.144 26.68C100.2 25.624 101.64 25.096 103.464 25.096C105.736 25.096 107.336 25.824 108.264 27.28C109.208 28.736 109.68 30.928 109.68 33.856C109.68 35.936 109.496 37.64 109.128 38.968C108.776 40.296 108.16 41.304 107.28 41.992C106.416 42.68 105.232 43.024 103.728 43.024C102.544 43.024 101.536 42.8 100.704 42.352C99.872 41.888 99.232 41.288 98.784 40.552C98.352 39.8 98.104 38.976 98.04 38.08H101.16ZM103.704 33.76C104.536 33.76 105.192 33.504 105.672 32.992C106.152 32.48 106.392 31.792 106.392 30.928C106.392 29.984 106.136 29.256 105.624 28.744C105.128 28.216 104.448 27.952 103.584 27.952C102.72 27.952 102.032 28.224 101.52 28.768C101.024 29.296 100.776 30 100.776 30.88C100.776 31.728 101.016 32.424 101.496 32.968C101.992 33.496 102.728 33.76 103.704 33.76ZM116.351 39.472L113.543 46.216H111.383L112.943 39.472H116.351ZM118.245 39.592V36.952L126.093 25.72H130.005V36.664H132.117V39.592H130.005V43H126.645V39.592H118.245ZM126.861 29.32L121.941 36.664H126.861V29.32ZM134.256 34.024C134.256 31.256 134.752 29.088 135.744 27.52C136.752 25.952 138.416 25.168 140.736 25.168C143.056 25.168 144.712 25.952 145.704 27.52C146.712 29.088 147.216 31.256 147.216 34.024C147.216 36.808 146.712 38.992 145.704 40.576C144.712 42.16 143.056 42.952 140.736 42.952C138.416 42.952 136.752 42.16 135.744 40.576C134.752 38.992 134.256 36.808 134.256 34.024ZM143.904 34.024C143.904 32.84 143.824 31.848 143.664 31.048C143.52 30.232 143.216 29.568 142.752 29.056C142.304 28.544 141.632 28.288 140.736 28.288C139.84 28.288 139.16 28.544 138.696 29.056C138.248 29.568 137.944 30.232 137.784 31.048C137.64 31.848 137.568 32.84 137.568 34.024C137.568 35.24 137.64 36.264 137.784 37.096C137.928 37.912 138.232 38.576 138.696 39.088C139.16 39.584 139.84 39.832 140.736 39.832C141.632 39.832 142.312 39.584 142.776 39.088C143.24 38.576 143.544 37.912 143.688 37.096C143.832 36.264 143.904 35.24 143.904 34.024ZM149.772 34.024C149.772 31.256 150.268 29.088 151.26 27.52C152.268 25.952 153.932 25.168 156.252 25.168C158.572 25.168 160.228 25.952 161.22 27.52C162.228 29.088 162.732 31.256 162.732 34.024C162.732 36.808 162.228 38.992 161.22 40.576C160.228 42.16 158.572 42.952 156.252 42.952C153.932 42.952 152.268 42.16 151.26 40.576C150.268 38.992 149.772 36.808 149.772 34.024ZM159.42 34.024C159.42 32.84 159.34 31.848 159.18 31.048C159.036 30.232 158.732 29.568 158.268 29.056C157.82 28.544 157.148 28.288 156.252 28.288C155.356 28.288 154.676 28.544 154.212 29.056C153.764 29.568 153.46 30.232 153.3 31.048C153.156 31.848 153.084 32.84 153.084 34.024C153.084 35.24 153.156 36.264 153.3 37.096C153.444 37.912 153.748 38.576 154.212 39.088C154.676 39.584 155.356 39.832 156.252 39.832C157.148 39.832 157.828 39.584 158.292 39.088C158.756 38.576 159.06 37.912 159.204 37.096C159.348 36.264 159.42 35.24 159.42 34.024ZM178.224 35.92H173.688V40.576H170.52V35.92H165.984V32.992H170.52V28.336H173.688V32.992H178.224V35.92Z" fill="black"/>
<g filter="url(#filter1_d_1307_1581)">
<rect x="332" y="6" width="265" height="84" rx="4" fill="white"/>
</g>
<path d="M423.304 68.432C423.133 68.3467 422.963 68.2293 422.792 68.08C422.621 67.92 422.467 67.7333 422.328 67.52C422.189 67.3067 422.077 67.0773 421.992 66.832C421.917 66.576 421.88 66.3147 421.88 66.048C421.88 65.4613 422.019 64.944 422.296 64.496C422.573 64.0373 422.947 63.68 423.416 63.424C423.885 63.1573 424.403 63.024 424.968 63.024C425.277 63.024 425.56 63.0453 425.816 63.088C426.083 63.12 426.349 63.1733 426.616 63.248L426.264 65.328C426.072 65.2747 425.885 65.2373 425.704 65.216C425.533 65.184 425.379 65.168 425.24 65.168C425.016 65.168 424.819 65.216 424.648 65.312C424.477 65.3973 424.344 65.5253 424.248 65.696C424.163 65.856 424.12 66.0427 424.12 66.256C424.12 66.5013 424.173 66.72 424.28 66.912C424.397 67.104 424.568 67.2693 424.792 67.408C425.027 67.536 425.315 67.6373 425.656 67.712L423.304 68.432ZM421.864 70.912L421.144 68.816C421.699 68.6667 422.301 68.496 422.952 68.304C423.603 68.1013 424.285 67.872 425 67.616C425.725 67.36 426.461 67.0827 427.208 66.784L428.04 68.832C427.613 69.0027 427.139 69.1893 426.616 69.392C426.093 69.584 425.549 69.776 424.984 69.968C424.419 70.16 423.869 70.336 423.336 70.496C422.803 70.656 422.312 70.7947 421.864 70.912ZM429.796 70L429.46 58.288H431.7L432.036 70H429.796ZM436.379 67.84C436.859 67.84 437.227 67.7973 437.483 67.712C437.739 67.6267 437.915 67.5147 438.011 67.376C438.107 67.2373 438.155 67.088 438.155 66.928C438.155 66.672 438.08 66.3733 437.931 66.032C437.792 65.6907 437.616 65.3333 437.403 64.96C437.189 64.5867 436.965 64.2293 436.731 63.888C436.507 63.5467 436.304 63.248 436.123 62.992L438.027 61.728C438.485 62.3467 438.88 62.96 439.211 63.568C439.541 64.1653 439.808 64.72 440.011 65.232C440.224 65.744 440.373 66.1813 440.459 66.544C440.544 66.8853 440.672 67.152 440.843 67.344C441.024 67.5253 441.232 67.6533 441.467 67.728C441.701 67.8027 441.936 67.84 442.171 67.84C442.576 67.84 442.864 67.9467 443.035 68.16C443.216 68.3627 443.307 68.6187 443.307 68.928C443.307 69.2587 443.195 69.536 442.971 69.76C442.757 69.9733 442.437 70.08 442.011 70.08C441.541 70.08 441.131 70.016 440.779 69.888C440.427 69.76 440.128 69.5573 439.883 69.28C439.637 69.0027 439.429 68.6507 439.259 68.224L440.235 68.432C440.149 68.7307 439.952 69.008 439.643 69.264C439.344 69.5093 438.944 69.712 438.443 69.872C437.952 70.0213 437.371 70.096 436.699 70.096C436.379 70.096 436.021 70.0693 435.627 70.016C435.243 69.9627 434.859 69.8827 434.475 69.776C434.101 69.6693 433.76 69.5307 433.451 69.36L434.235 67.328C434.629 67.4987 435.008 67.6267 435.371 67.712C435.744 67.7973 436.08 67.84 436.379 67.84ZM441.967 70.08L442.127 67.84C442.874 67.84 443.546 67.792 444.143 67.696C444.741 67.5893 445.263 67.4507 445.711 67.28C446.17 67.1093 446.549 66.912 446.847 66.688C447.157 66.464 447.386 66.2293 447.535 65.984C447.695 65.728 447.775 65.4773 447.775 65.232C447.775 65.0933 447.738 64.9653 447.663 64.848C447.599 64.72 447.487 64.6187 447.327 64.544C447.167 64.4587 446.949 64.416 446.671 64.416C446.533 64.416 446.367 64.432 446.175 64.464C445.983 64.496 445.791 64.544 445.599 64.608C445.407 64.6613 445.226 64.736 445.055 64.832C445.279 65.0027 445.525 65.2213 445.791 65.488C446.058 65.744 446.325 66.016 446.591 66.304C446.858 66.5813 447.087 66.8533 447.279 67.12C447.503 67.216 447.749 67.312 448.015 67.408C448.293 67.4933 448.591 67.568 448.911 67.632C449.231 67.696 449.567 67.7493 449.919 67.792C450.271 67.824 450.634 67.84 451.007 67.84C451.413 67.84 451.701 67.9467 451.871 68.16C452.053 68.3627 452.143 68.6187 452.143 68.928C452.143 69.2587 452.031 69.536 451.807 69.76C451.583 69.9733 451.263 70.08 450.847 70.08C449.994 70.08 449.237 70.016 448.575 69.888C447.914 69.7493 447.322 69.552 446.799 69.296C446.287 69.0293 445.807 68.7093 445.359 68.336C445.231 68.112 445.05 67.872 444.815 67.616C444.591 67.3493 444.351 67.0933 444.095 66.848C443.85 66.6027 443.626 66.4 443.423 66.24C443.37 66.1973 443.306 66.0853 443.231 65.904C443.167 65.712 443.109 65.5147 443.055 65.312C443.002 65.0987 442.975 64.9493 442.975 64.864C442.975 64.6187 443.087 64.3573 443.311 64.08C443.546 63.8027 443.855 63.5467 444.239 63.312C444.634 63.0667 445.066 62.8693 445.535 62.72C446.015 62.56 446.501 62.48 446.991 62.48C447.653 62.48 448.202 62.5813 448.639 62.784C449.087 62.976 449.423 63.248 449.647 63.6C449.871 63.9413 449.983 64.3413 449.983 64.8C449.983 65.312 449.871 65.824 449.647 66.336C449.423 66.8373 449.093 67.312 448.655 67.76C448.229 68.208 447.69 68.608 447.039 68.96C446.399 69.3013 445.653 69.5733 444.799 69.776C443.957 69.9787 443.013 70.08 441.967 70.08ZM450.859 70.08L451.019 67.84C451.371 67.84 451.659 67.8133 451.883 67.76C452.107 67.696 452.289 67.5627 452.427 67.36C452.577 67.1467 452.705 66.832 452.811 66.416C452.929 65.9893 453.057 65.4133 453.195 64.688L455.275 65.072C455.243 65.232 455.206 65.4187 455.163 65.632C455.121 65.8453 455.083 66.064 455.051 66.288C455.019 66.5013 455.003 66.6933 455.003 66.864C455.003 67.1627 455.099 67.4027 455.291 67.584C455.483 67.7547 455.846 67.84 456.379 67.84C456.646 67.84 456.875 67.8133 457.067 67.76C457.27 67.696 457.441 67.5627 457.579 67.36C457.729 67.1467 457.857 66.8213 457.963 66.384C458.081 65.936 458.193 65.3333 458.299 64.576L460.411 64.912C460.369 65.1573 460.326 65.4187 460.283 65.696C460.241 65.9733 460.203 66.2293 460.171 66.464C460.139 66.6987 460.123 66.8907 460.123 67.04C460.123 67.1787 460.161 67.312 460.235 67.44C460.321 67.5573 460.47 67.6533 460.683 67.728C460.907 67.8027 461.222 67.84 461.627 67.84C461.915 67.84 462.161 67.8027 462.363 67.728C462.577 67.6533 462.737 67.5307 462.843 67.36C462.961 67.1893 463.019 66.9653 463.019 66.688C463.019 66.2933 462.929 65.776 462.747 65.136C462.566 64.496 462.353 63.824 462.107 63.12L464.363 62.448C464.534 62.9067 464.683 63.3973 464.811 63.92C464.95 64.432 465.057 64.9333 465.131 65.424C465.217 65.904 465.259 66.3253 465.259 66.688C465.259 67.232 465.174 67.7173 465.003 68.144C464.833 68.56 464.593 68.912 464.283 69.2C463.974 69.488 463.606 69.7067 463.179 69.856C462.753 70.0053 462.283 70.08 461.771 70.08C461.153 70.08 460.646 70.0213 460.251 69.904C459.857 69.776 459.553 69.568 459.339 69.28C459.137 68.9813 459.003 68.576 458.939 68.064H459.483C459.259 68.6933 459.009 69.152 458.731 69.44C458.454 69.7173 458.123 69.8933 457.739 69.968C457.366 70.0427 456.897 70.08 456.331 70.08C455.979 70.08 455.617 70.0427 455.243 69.968C454.881 69.8827 454.555 69.6907 454.267 69.392C453.979 69.0933 453.766 68.6293 453.627 68L454.491 67.968C454.267 68.5973 453.974 69.0613 453.611 69.36C453.259 69.6587 452.854 69.856 452.395 69.952C451.937 70.0373 451.425 70.08 450.859 70.08ZM471.429 68.432C471.258 68.3467 471.088 68.2293 470.917 68.08C470.746 67.92 470.592 67.7333 470.453 67.52C470.314 67.3067 470.202 67.0773 470.117 66.832C470.042 66.576 470.005 66.3147 470.005 66.048C470.005 65.4613 470.144 64.944 470.421 64.496C470.698 64.0373 471.072 63.68 471.541 63.424C472.01 63.1573 472.528 63.024 473.093 63.024C473.402 63.024 473.685 63.0453 473.941 63.088C474.208 63.12 474.474 63.1733 474.741 63.248L474.389 65.328C474.197 65.2747 474.01 65.2373 473.829 65.216C473.658 65.184 473.504 65.168 473.365 65.168C473.141 65.168 472.944 65.216 472.773 65.312C472.602 65.3973 472.469 65.5253 472.373 65.696C472.288 65.856 472.245 66.0427 472.245 66.256C472.245 66.5013 472.298 66.72 472.405 66.912C472.522 67.104 472.693 67.2693 472.917 67.408C473.152 67.536 473.44 67.6373 473.781 67.712L471.429 68.432ZM469.989 70.912L469.269 68.816C469.824 68.6667 470.426 68.496 471.077 68.304C471.728 68.1013 472.41 67.872 473.125 67.616C473.85 67.36 474.586 67.0827 475.333 66.784L476.165 68.832C475.738 69.0027 475.264 69.1893 474.741 69.392C474.218 69.584 473.674 69.776 473.109 69.968C472.544 70.16 471.994 70.336 471.461 70.496C470.928 70.656 470.437 70.7947 469.989 70.912ZM487.521 70.08C486.774 70.08 486.155 70.0267 485.665 69.92C485.185 69.8027 484.806 69.6267 484.529 69.392C484.251 69.1467 484.054 68.8427 483.937 68.48C483.819 68.1173 483.75 67.6853 483.729 67.184L483.393 58.288H485.633L485.969 66.112C485.99 66.6027 486.043 66.9707 486.129 67.216C486.214 67.4613 486.374 67.6267 486.609 67.712C486.854 67.7973 487.211 67.84 487.681 67.84C488.086 67.84 488.374 67.9467 488.545 68.16C488.726 68.3627 488.817 68.6187 488.817 68.928C488.817 69.2587 488.705 69.536 488.481 69.76C488.257 69.9733 487.937 70.08 487.521 70.08ZM478.913 70.08C478.625 70.08 478.331 70.0533 478.033 70C477.745 69.9573 477.542 69.9253 477.425 69.904L477.729 67.584C478.465 67.68 479.179 67.7013 479.873 67.648C480.577 67.584 481.206 67.4133 481.761 67.136C482.326 66.848 482.774 66.432 483.105 65.888C483.435 65.3333 483.601 64.6187 483.601 63.744L484.465 66.256C484.337 66.9813 484.118 67.584 483.809 68.064C483.51 68.5333 483.153 68.9067 482.737 69.184C482.331 69.4507 481.899 69.648 481.441 69.776C480.982 69.904 480.534 69.984 480.097 70.016C479.659 70.0587 479.265 70.08 478.913 70.08ZM482.385 67.888C482.225 67.5787 481.995 67.216 481.697 66.8C481.398 66.3733 481.03 65.904 480.593 65.392C480.166 64.8693 479.675 64.32 479.121 63.744C478.566 63.1573 477.953 62.5547 477.281 61.936L478.673 60.416C479.665 61.3547 480.47 62.144 481.089 62.784C481.707 63.424 482.198 63.9627 482.561 64.4C482.934 64.8267 483.217 65.1947 483.409 65.504C483.611 65.8133 483.782 66.112 483.921 66.4L482.385 67.888ZM487.531 70.08L487.691 67.84C487.958 67.84 488.161 67.7867 488.299 67.68C488.438 67.5733 488.577 67.3867 488.715 67.12C488.854 66.8533 489.046 66.4907 489.291 66.032C489.558 65.52 489.835 65.0933 490.123 64.752C490.411 64.4 490.699 64.1227 490.987 63.92C491.286 63.7067 491.579 63.5573 491.867 63.472C492.166 63.376 492.459 63.328 492.747 63.328C493.142 63.328 493.51 63.4133 493.851 63.584C494.203 63.744 494.539 64.0267 494.859 64.432C495.179 64.8267 495.483 65.3707 495.771 66.064C495.974 66.544 496.177 66.912 496.379 67.168C496.582 67.424 496.79 67.6 497.003 67.696C497.227 67.792 497.451 67.84 497.675 67.84C498.081 67.84 498.369 67.9467 498.539 68.16C498.71 68.3627 498.795 68.6187 498.795 68.928C498.795 69.2587 498.683 69.536 498.459 69.76C498.235 69.9733 497.921 70.08 497.515 70.08C496.993 70.08 496.518 69.9947 496.091 69.824C495.665 69.6533 495.329 69.3973 495.083 69.056L495.547 68.704C495.451 68.928 495.307 69.1627 495.115 69.408C494.934 69.6533 494.694 69.8613 494.395 70.032C494.107 70.2027 493.761 70.288 493.355 70.288C493.089 70.288 492.774 70.2347 492.411 70.128C492.059 70.032 491.691 69.8667 491.307 69.632C490.934 69.3867 490.587 69.056 490.267 68.64C490.065 69.0133 489.841 69.3067 489.595 69.52C489.35 69.7227 489.062 69.8667 488.731 69.952C488.401 70.0373 488.001 70.08 487.531 70.08ZM491.195 66.752C491.302 66.912 491.43 67.072 491.579 67.232C491.729 67.392 491.894 67.536 492.075 67.664C492.257 67.7813 492.449 67.8773 492.651 67.952C492.865 68.0267 493.073 68.064 493.275 68.064C493.489 68.064 493.665 67.984 493.803 67.824C493.942 67.6533 493.947 67.4027 493.819 67.072C493.766 66.9333 493.691 66.7787 493.595 66.608C493.51 66.4267 493.409 66.256 493.291 66.096C493.185 65.936 493.062 65.8027 492.923 65.696C492.795 65.5893 492.662 65.536 492.523 65.536C492.385 65.536 492.241 65.5787 492.091 65.664C491.942 65.7493 491.793 65.8827 491.643 66.064C491.494 66.2347 491.345 66.464 491.195 66.752ZM497.516 70.08L497.676 67.84C498.177 67.84 498.561 67.8347 498.828 67.824C499.105 67.8133 499.313 67.8027 499.452 67.792C499.59 67.7707 499.708 67.7547 499.804 67.744C499.697 67.6373 499.558 67.4827 499.388 67.28C499.217 67.0773 499.062 66.816 498.924 66.496C498.796 66.176 498.732 65.792 498.732 65.344C498.732 64.6933 498.897 64.1227 499.228 63.632C499.569 63.1413 500.028 62.7573 500.604 62.48C501.18 62.2027 501.825 62.064 502.54 62.064C502.881 62.064 503.196 62.0853 503.484 62.128C503.782 62.1707 504.081 62.2347 504.38 62.32L504.028 64.448C503.814 64.3947 503.59 64.352 503.356 64.32C503.121 64.288 502.913 64.272 502.732 64.272C502.38 64.272 502.07 64.3307 501.804 64.448C501.548 64.5547 501.345 64.7093 501.196 64.912C501.057 65.104 500.988 65.3387 500.988 65.616C500.988 65.7973 501.02 65.968 501.084 66.128C501.158 66.288 501.249 66.432 501.356 66.56C501.462 66.688 501.58 66.8 501.708 66.896C501.836 66.992 501.958 67.072 502.076 67.136C502.204 67.1893 502.31 67.2267 502.396 67.248C502.662 67.1733 502.892 67.1093 503.084 67.056C503.286 66.992 503.478 66.9333 503.66 66.88C503.852 66.816 504.06 66.736 504.284 66.64C504.508 66.544 504.785 66.4267 505.116 66.288L505.836 68.4C504.94 68.8373 504.065 69.1787 503.212 69.424C502.358 69.6693 501.473 69.84 500.556 69.936C499.638 70.032 498.625 70.08 497.516 70.08Z" fill="#313A86"/>
<path d="M428.328 39.208C429.864 37.928 431.088 36.864 432 36.016C432.912 35.152 433.672 34.256 434.28 33.328C434.888 32.4 435.192 31.488 435.192 30.592C435.192 29.776 435 29.136 434.616 28.672C434.232 28.208 433.64 27.976 432.84 27.976C432.04 27.976 431.424 28.248 430.992 28.792C430.56 29.32 430.336 30.048 430.32 30.976H427.056C427.12 29.056 427.688 27.6 428.76 26.608C429.848 25.616 431.224 25.12 432.888 25.12C434.712 25.12 436.112 25.608 437.088 26.584C438.064 27.544 438.552 28.816 438.552 30.4C438.552 31.648 438.216 32.84 437.544 33.976C436.872 35.112 436.104 36.104 435.24 36.952C434.376 37.784 433.248 38.792 431.856 39.976H438.936V42.76H427.08V40.264L428.328 39.208ZM445.109 39.472L442.301 46.216H440.141L441.701 39.472H445.109ZM446.739 28.6V25.504H452.523V43H449.067V28.6H446.739ZM455.842 34.024C455.842 31.256 456.338 29.088 457.33 27.52C458.338 25.952 460.002 25.168 462.322 25.168C464.642 25.168 466.298 25.952 467.29 27.52C468.298 29.088 468.802 31.256 468.802 34.024C468.802 36.808 468.298 38.992 467.29 40.576C466.298 42.16 464.642 42.952 462.322 42.952C460.002 42.952 458.338 42.16 457.33 40.576C456.338 38.992 455.842 36.808 455.842 34.024ZM465.49 34.024C465.49 32.84 465.41 31.848 465.25 31.048C465.106 30.232 464.802 29.568 464.338 29.056C463.89 28.544 463.218 28.288 462.322 28.288C461.426 28.288 460.746 28.544 460.282 29.056C459.834 29.568 459.53 30.232 459.37 31.048C459.226 31.848 459.154 32.84 459.154 34.024C459.154 35.24 459.226 36.264 459.37 37.096C459.514 37.912 459.818 38.576 460.282 39.088C460.746 39.584 461.426 39.832 462.322 39.832C463.218 39.832 463.898 39.584 464.362 39.088C464.826 38.576 465.13 37.912 465.274 37.096C465.418 36.264 465.49 35.24 465.49 34.024ZM471.358 34.024C471.358 31.256 471.854 29.088 472.846 27.52C473.854 25.952 475.518 25.168 477.838 25.168C480.158 25.168 481.814 25.952 482.806 27.52C483.814 29.088 484.318 31.256 484.318 34.024C484.318 36.808 483.814 38.992 482.806 40.576C481.814 42.16 480.158 42.952 477.838 42.952C475.518 42.952 473.854 42.16 472.846 40.576C471.854 38.992 471.358 36.808 471.358 34.024ZM481.006 34.024C481.006 32.84 480.926 31.848 480.766 31.048C480.622 30.232 480.318 29.568 479.854 29.056C479.406 28.544 478.734 28.288 477.838 28.288C476.942 28.288 476.262 28.544 475.798 29.056C475.35 29.568 475.046 30.232 474.886 31.048C474.742 31.848 474.67 32.84 474.67 34.024C474.67 35.24 474.742 36.264 474.886 37.096C475.03 37.912 475.334 38.576 475.798 39.088C476.262 39.584 476.942 39.832 477.838 39.832C478.734 39.832 479.414 39.584 479.878 39.088C480.342 38.576 480.646 37.912 480.79 37.096C480.934 36.264 481.006 35.24 481.006 34.024ZM499.81 35.92H495.274V40.576H492.106V35.92H487.57V32.992H492.106V28.336H495.274V32.992H499.81V35.92Z" fill="black"/>
<g filter="url(#filter2_d_1307_1581)">
<rect x="657" y="6" width="265" height="84" rx="4" fill="white"/>
</g>
<path d="M736.12 75.288C735.928 74.5413 735.763 73.8427 735.624 73.192C735.496 72.552 735.4 71.9707 735.336 71.448C735.272 70.936 735.24 70.4987 735.24 70.136C735.24 69.3893 735.363 68.7653 735.608 68.264C735.864 67.7627 736.2 67.3627 736.616 67.064C737.043 66.7547 737.507 66.536 738.008 66.408C738.509 66.2693 739.011 66.2 739.512 66.2C740.024 66.2 740.493 66.2427 740.92 66.328C740.941 65.9973 740.915 65.6987 740.84 65.432C740.776 65.1653 740.675 64.936 740.536 64.744C740.408 64.552 740.248 64.4027 740.056 64.296C739.875 64.1893 739.677 64.136 739.464 64.136C739.261 64.136 739.059 64.1893 738.856 64.296C738.653 64.392 738.461 64.536 738.28 64.728C738.109 64.92 737.944 65.1653 737.784 65.464L736.04 64.504C736.328 63.8533 736.669 63.3413 737.064 62.968C737.459 62.584 737.869 62.312 738.296 62.152C738.733 61.9813 739.16 61.896 739.576 61.896C740.216 61.896 740.765 62.0347 741.224 62.312C741.693 62.5787 742.072 62.9307 742.36 63.368C742.648 63.7947 742.861 64.2533 743 64.744C743.139 65.2347 743.208 65.704 743.208 66.152C743.208 66.4933 743.171 66.8347 743.096 67.176C743.032 67.5067 742.952 67.8053 742.856 68.072C742.771 68.3387 742.685 68.5467 742.6 68.696C742.013 68.536 741.459 68.4187 740.936 68.344C740.413 68.2693 739.939 68.248 739.512 68.28C739.096 68.3013 738.733 68.3867 738.424 68.536C738.125 68.6747 737.891 68.8827 737.72 69.16C737.56 69.4373 737.48 69.7893 737.48 70.216C737.48 70.6107 737.512 71.0587 737.576 71.56C737.64 72.072 737.731 72.6 737.848 73.144C737.965 73.688 738.099 74.2267 738.248 74.76L736.12 75.288ZM744.678 72.68L744.214 70.44C744.971 70.344 745.632 70.2267 746.198 70.088C746.763 69.96 747.238 69.7787 747.622 69.544C748.006 69.3093 748.294 68.9893 748.486 68.584C748.678 68.168 748.774 67.6347 748.774 66.984C748.774 66.3547 748.678 65.8533 748.486 65.48C748.294 65.1067 748.038 64.92 747.718 64.92C747.494 64.92 747.307 65 747.158 65.16C747.008 65.3093 746.896 65.4907 746.822 65.704C746.758 65.9067 746.726 66.088 746.726 66.248C746.726 66.344 746.752 66.4453 746.806 66.552C746.859 66.6587 746.976 66.7493 747.158 66.824C747.339 66.8987 747.622 66.9413 748.006 66.952C748.4 66.9627 748.934 66.9253 749.606 66.84H752.294C752.699 66.84 752.987 66.9467 753.158 67.16C753.339 67.3627 753.43 67.6187 753.43 67.928C753.43 68.2587 753.318 68.536 753.094 68.76C752.87 68.9733 752.55 69.08 752.134 69.08H747.734C747.062 69.08 746.486 69 746.006 68.84C745.526 68.68 745.158 68.424 744.902 68.072C744.646 67.7093 744.518 67.2293 744.518 66.632C744.518 66.152 744.598 65.672 744.758 65.192C744.928 64.712 745.163 64.2747 745.462 63.88C745.76 63.4747 746.107 63.1547 746.502 62.92C746.907 62.6747 747.344 62.552 747.814 62.552C748.454 62.552 749.014 62.7493 749.494 63.144C749.974 63.5387 750.347 64.0613 750.614 64.712C750.891 65.3627 751.03 66.072 751.03 66.84C751.03 68.0453 750.774 69.0693 750.262 69.912C749.75 70.7547 749.019 71.4053 748.07 71.864C747.12 72.3333 745.99 72.6053 744.678 72.68ZM762.62 69.08C762.13 69.08 761.671 69.0427 761.244 68.968C760.828 68.8933 760.444 68.7653 760.092 68.584C759.74 68.392 759.426 68.1307 759.148 67.8C758.882 67.4693 758.658 67.0533 758.476 66.552L759.74 65.544C759.932 65.8853 760.167 66.152 760.444 66.344C760.722 66.5253 761.052 66.6533 761.436 66.728C761.82 66.8027 762.268 66.84 762.78 66.84C763.186 66.84 763.474 66.9467 763.644 67.16C763.815 67.3627 763.9 67.6187 763.9 67.928C763.9 68.2587 763.788 68.536 763.564 68.76C763.351 68.9733 763.036 69.08 762.62 69.08ZM752.156 69.08L752.316 66.84C752.892 66.84 753.463 66.808 754.028 66.744C754.594 66.68 755.143 66.584 755.676 66.456C756.21 66.328 756.716 66.1627 757.196 65.96C757.687 65.7573 758.146 65.512 758.572 65.224C758.252 65.032 757.906 64.8667 757.532 64.728C757.159 64.5893 756.759 64.488 756.332 64.424C755.916 64.3493 755.474 64.312 755.004 64.312C754.834 64.312 754.652 64.3173 754.46 64.328C754.279 64.3387 754.092 64.36 753.9 64.392C753.708 64.4133 753.516 64.4453 753.324 64.488L753.004 62.296C753.314 62.2107 753.639 62.152 753.98 62.12C754.332 62.0773 754.642 62.056 754.908 62.056C755.484 62.056 756.012 62.12 756.492 62.248C756.983 62.376 757.431 62.536 757.836 62.728C758.252 62.92 758.636 63.112 758.988 63.304C759.351 63.496 759.692 63.656 760.012 63.784C760.343 63.912 760.663 63.976 760.972 63.976H761.564L761.82 66.104C761.362 66.1253 760.93 66.216 760.524 66.376C760.13 66.5253 759.735 66.7173 759.34 66.952C758.956 67.176 758.54 67.4107 758.092 67.656C757.655 67.9013 757.159 68.1307 756.604 68.344C756.05 68.5573 755.41 68.7333 754.684 68.872C753.959 69.0107 753.116 69.08 752.156 69.08ZM756.684 72.68C756.375 72.68 756.108 72.5733 755.884 72.36C755.671 72.1467 755.564 71.8853 755.564 71.576C755.564 71.2667 755.671 70.9947 755.884 70.76C756.108 70.536 756.375 70.424 756.684 70.424C756.994 70.424 757.255 70.536 757.468 70.76C757.692 70.9947 757.804 71.2667 757.804 71.576C757.804 71.8853 757.692 72.1467 757.468 72.36C757.255 72.5733 756.994 72.68 756.684 72.68ZM762.625 69.08L762.785 66.84C763.254 66.84 763.622 66.808 763.889 66.744C764.166 66.68 764.364 66.5627 764.481 66.392C764.598 66.2107 764.657 65.9547 764.657 65.624C764.657 65.3253 764.614 64.968 764.529 64.552C764.454 64.136 764.353 63.704 764.225 63.256C764.097 62.808 763.969 62.3973 763.841 62.024L766.049 61.416C766.177 61.7787 766.305 62.2 766.433 62.68C766.561 63.16 766.668 63.656 766.753 64.168C766.849 64.6693 766.897 65.1547 766.897 65.624C766.897 66.2107 766.822 66.7067 766.673 67.112C766.524 67.5067 766.316 67.8373 766.049 68.104C765.793 68.36 765.484 68.5627 765.121 68.712C764.769 68.8507 764.38 68.9467 763.953 69C763.526 69.0533 763.084 69.08 762.625 69.08ZM764.929 60.088C764.598 60.088 764.316 59.976 764.081 59.752C763.857 59.528 763.745 59.2507 763.745 58.92C763.745 58.5893 763.857 58.3067 764.081 58.072C764.316 57.8373 764.598 57.72 764.929 57.72C765.249 57.72 765.521 57.8373 765.745 58.072C765.98 58.3067 766.097 58.5893 766.097 58.92C766.097 59.2507 765.98 59.528 765.745 59.752C765.521 59.976 765.249 60.088 764.929 60.088ZM779.902 60.072H775.102V61.848C775.304 61.6347 775.582 61.464 775.934 61.336C776.286 61.208 776.675 61.144 777.102 61.144C777.87 61.144 778.51 61.32 779.022 61.672C779.544 62.024 779.928 62.488 780.174 63.064C780.419 63.64 780.542 64.2693 780.542 64.952C780.542 66.2107 780.184 67.2027 779.47 67.928C778.755 68.6427 777.763 69 776.494 69C775.608 69 774.84 68.8507 774.19 68.552C773.55 68.2427 773.059 67.816 772.718 67.272C772.376 66.728 772.2 66.104 772.19 65.4H775.246C775.278 65.6453 775.384 65.8587 775.566 66.04C775.747 66.2213 776.014 66.312 776.366 66.312C776.739 66.312 777.022 66.184 777.214 65.928C777.406 65.672 777.502 65.3307 777.502 64.904C777.502 64.488 777.4 64.1733 777.198 63.96C776.995 63.736 776.702 63.624 776.318 63.624C776.03 63.624 775.795 63.6987 775.614 63.848C775.443 63.9867 775.342 64.1627 775.31 64.376H772.254V57.304H779.902V60.072ZM791.113 69.336L791.529 67.096C792.563 67.096 793.465 67.0693 794.233 67.016C795.001 66.952 795.635 66.8613 796.137 66.744C796.649 66.616 797.027 66.4507 797.273 66.248C797.529 66.0453 797.657 65.8 797.657 65.512C797.657 65.128 797.593 64.6693 797.465 64.136C797.337 63.592 797.171 63.0427 796.969 62.488L799.065 61.88C799.203 62.2427 799.337 62.6427 799.465 63.08C799.593 63.5067 799.694 63.9387 799.769 64.376C799.854 64.8027 799.897 65.2027 799.897 65.576C799.897 66.2373 799.753 66.808 799.465 67.288C799.177 67.7573 798.697 68.1467 798.025 68.456C797.363 68.7547 796.467 68.9733 795.337 69.112C794.206 69.2613 792.798 69.336 791.113 69.336ZM791.097 69.336C789.945 69.336 788.969 69.2453 788.169 69.064C787.379 68.8933 786.734 68.648 786.233 68.328C785.742 67.9973 785.385 67.6133 785.161 67.176C784.937 66.7387 784.825 66.2587 784.825 65.736C784.825 65.3947 784.851 65.0533 784.905 64.712C784.969 64.36 785.043 64.0187 785.129 63.688C785.225 63.3573 785.31 63.0587 785.385 62.792L787.385 63.256C787.342 63.448 787.294 63.656 787.241 63.88C787.187 64.104 787.145 64.3227 787.113 64.536C787.081 64.7387 787.065 64.9253 787.065 65.096C787.065 65.4907 787.203 65.8427 787.481 66.152C787.769 66.4507 788.238 66.6853 788.889 66.856C789.539 67.016 790.414 67.096 791.513 67.096L791.833 68.824L791.097 69.336ZM793.737 62.024C793.427 62.024 793.161 61.9173 792.937 61.704C792.723 61.48 792.617 61.2187 792.617 60.92C792.617 60.6107 792.723 60.344 792.937 60.12C793.161 59.896 793.427 59.784 793.737 59.784C794.035 59.784 794.291 59.896 794.505 60.12C794.718 60.344 794.825 60.6107 794.825 60.92C794.825 61.2187 794.718 61.48 794.505 61.704C794.291 61.9173 794.035 62.024 793.737 62.024ZM790.969 62.008C790.659 62.008 790.393 61.9013 790.169 61.688C789.955 61.464 789.849 61.2027 789.849 60.904C789.849 60.5947 789.955 60.328 790.169 60.104C790.393 59.88 790.659 59.768 790.969 59.768C791.267 59.768 791.523 59.88 791.737 60.104C791.95 60.328 792.057 60.5947 792.057 60.904C792.057 61.2027 791.95 61.464 791.737 61.688C791.523 61.9013 791.267 62.008 790.969 62.008ZM805.775 69.08C804.783 69.08 804.015 68.9787 803.471 68.776C802.938 68.5733 802.564 68.2587 802.351 67.832C802.138 67.3947 802.015 66.8453 801.983 66.184L801.647 57.288H803.887L804.223 65.112C804.244 65.6027 804.298 65.9707 804.383 66.216C804.468 66.4613 804.628 66.6267 804.863 66.712C805.108 66.7973 805.466 66.84 805.935 66.84C806.34 66.84 806.628 66.9467 806.799 67.16C806.98 67.3627 807.071 67.6187 807.071 67.928C807.071 68.2587 806.959 68.536 806.735 68.76C806.511 68.9733 806.191 69.08 805.775 69.08ZM805.797 69.08L805.957 66.84C806.224 66.84 806.426 66.7867 806.565 66.68C806.704 66.5733 806.842 66.3867 806.981 66.12C807.12 65.8533 807.312 65.4907 807.557 65.032C807.824 64.52 808.101 64.0933 808.389 63.752C808.677 63.4 808.965 63.1227 809.253 62.92C809.552 62.7067 809.845 62.5573 810.133 62.472C810.432 62.376 810.725 62.328 811.013 62.328C811.408 62.328 811.776 62.4133 812.117 62.584C812.469 62.744 812.805 63.0267 813.125 63.432C813.445 63.8267 813.749 64.3707 814.037 65.064C814.24 65.544 814.442 65.912 814.645 66.168C814.848 66.424 815.056 66.6 815.269 66.696C815.493 66.792 815.717 66.84 815.941 66.84C816.346 66.84 816.634 66.9467 816.805 67.16C816.976 67.3627 817.061 67.6187 817.061 67.928C817.061 68.2587 816.949 68.536 816.725 68.76C816.501 68.9733 816.186 69.08 815.781 69.08C815.258 69.08 814.784 68.9947 814.357 68.824C813.93 68.6533 813.594 68.3973 813.349 68.056L813.813 67.704C813.717 67.928 813.573 68.1627 813.381 68.408C813.2 68.6533 812.96 68.8613 812.661 69.032C812.373 69.2027 812.026 69.288 811.621 69.288C811.354 69.288 811.04 69.2347 810.677 69.128C810.325 69.032 809.957 68.8667 809.573 68.632C809.2 68.3867 808.853 68.056 808.533 67.64C808.33 68.0133 808.106 68.3067 807.861 68.52C807.616 68.7227 807.328 68.8667 806.997 68.952C806.666 69.0373 806.266 69.08 805.797 69.08ZM809.461 65.752C809.568 65.912 809.696 66.072 809.845 66.232C809.994 66.392 810.16 66.536 810.341 66.664C810.522 66.7813 810.714 66.8773 810.917 66.952C811.13 67.0267 811.338 67.064 811.541 67.064C811.754 67.064 811.93 66.984 812.069 66.824C812.208 66.6533 812.213 66.4027 812.085 66.072C812.032 65.9333 811.957 65.7787 811.861 65.608C811.776 65.4267 811.674 65.256 811.557 65.096C811.45 64.936 811.328 64.8027 811.189 64.696C811.061 64.5893 810.928 64.536 810.789 64.536C810.65 64.536 810.506 64.5787 810.357 64.664C810.208 64.7493 810.058 64.8827 809.909 65.064C809.76 65.2347 809.61 65.464 809.461 65.752ZM815.781 69.08L815.941 66.84C816.325 66.84 816.656 66.8027 816.933 66.728C817.211 66.6533 817.445 66.504 817.637 66.28C817.829 66.0453 817.989 65.704 818.117 65.256C818.256 64.808 818.379 64.2107 818.485 63.464L820.581 63.816C820.56 63.976 820.528 64.1627 820.485 64.376C820.453 64.5893 820.421 64.808 820.389 65.032C820.368 65.2453 820.357 65.448 820.357 65.64C820.357 65.832 820.395 66.0027 820.469 66.152C820.544 66.3013 820.661 66.4293 820.821 66.536C820.992 66.632 821.211 66.7067 821.477 66.76C821.755 66.8133 822.091 66.84 822.485 66.84C822.891 66.84 823.179 66.9467 823.349 67.16C823.52 67.3627 823.605 67.6187 823.605 67.928C823.605 68.2587 823.493 68.536 823.269 68.76C823.056 68.9733 822.741 69.08 822.325 69.08C821.845 69.08 821.408 69.0427 821.013 68.968C820.629 68.8933 820.293 68.7707 820.005 68.6C819.728 68.4187 819.499 68.184 819.317 67.896C819.147 67.5973 819.04 67.2347 818.997 66.808H819.765C819.573 67.32 819.328 67.7307 819.029 68.04C818.741 68.3387 818.416 68.5627 818.053 68.712C817.691 68.8613 817.312 68.9573 816.917 69C816.533 69.0533 816.155 69.08 815.781 69.08ZM820.245 72.792C819.936 72.792 819.669 72.68 819.445 72.456C819.232 72.2427 819.125 71.9867 819.125 71.688C819.125 71.3787 819.232 71.112 819.445 70.888C819.669 70.664 819.936 70.552 820.245 70.552C820.544 70.552 820.8 70.664 821.013 70.888C821.227 71.112 821.333 71.3787 821.333 71.688C821.333 71.9867 821.227 72.2427 821.013 72.456C820.8 72.68 820.544 72.792 820.245 72.792ZM817.477 72.792C817.168 72.792 816.901 72.68 816.677 72.456C816.464 72.2427 816.357 71.9867 816.357 71.688C816.357 71.3787 816.464 71.112 816.677 70.888C816.901 70.664 817.168 70.552 817.477 70.552C817.776 70.552 818.032 70.664 818.245 70.888C818.459 71.112 818.565 71.3787 818.565 71.688C818.565 71.9867 818.459 72.2427 818.245 72.456C818.032 72.68 817.776 72.792 817.477 72.792ZM822.328 69.08L822.488 66.84C822.872 66.84 823.203 66.8027 823.48 66.728C823.757 66.6533 823.992 66.504 824.184 66.28C824.376 66.0453 824.536 65.704 824.664 65.256C824.803 64.808 824.925 64.2107 825.032 63.464L827.128 63.816C827.107 63.976 827.075 64.1627 827.032 64.376C827 64.5893 826.968 64.808 826.936 65.032C826.915 65.2453 826.904 65.448 826.904 65.64C826.904 65.832 826.941 66.0027 827.016 66.152C827.091 66.3013 827.208 66.4293 827.368 66.536C827.539 66.632 827.757 66.7067 828.024 66.76C828.301 66.8133 828.637 66.84 829.032 66.84C829.437 66.84 829.725 66.9467 829.896 67.16C830.067 67.3627 830.152 67.6187 830.152 67.928C830.152 68.2587 830.04 68.536 829.816 68.76C829.603 68.9733 829.288 69.08 828.872 69.08C828.392 69.08 827.955 69.0427 827.56 68.968C827.176 68.8933 826.84 68.7707 826.552 68.6C826.275 68.4187 826.045 68.184 825.864 67.896C825.693 67.5973 825.587 67.2347 825.544 66.808H826.312C826.12 67.32 825.875 67.7307 825.576 68.04C825.288 68.3387 824.963 68.5627 824.6 68.712C824.237 68.8613 823.859 68.9573 823.464 69C823.08 69.0533 822.701 69.08 822.328 69.08ZM826.792 72.792C826.483 72.792 826.216 72.68 825.992 72.456C825.779 72.2427 825.672 71.9867 825.672 71.688C825.672 71.3787 825.779 71.112 825.992 70.888C826.216 70.664 826.483 70.552 826.792 70.552C827.091 70.552 827.347 70.664 827.56 70.888C827.773 71.112 827.88 71.3787 827.88 71.688C827.88 71.9867 827.773 72.2427 827.56 72.456C827.347 72.68 827.091 72.792 826.792 72.792ZM824.024 72.792C823.715 72.792 823.448 72.68 823.224 72.456C823.011 72.2427 822.904 71.9867 822.904 71.688C822.904 71.3787 823.011 71.112 823.224 70.888C823.448 70.664 823.715 70.552 824.024 70.552C824.323 70.552 824.579 70.664 824.792 70.888C825.005 71.112 825.112 71.3787 825.112 71.688C825.112 71.9867 825.005 72.2427 824.792 72.456C824.579 72.68 824.323 72.792 824.024 72.792ZM828.875 69.08L829.035 66.856C829.451 66.8667 829.835 66.8613 830.187 66.84C830.539 66.8187 830.854 66.7867 831.131 66.744C831.419 66.7013 831.67 66.6533 831.883 66.6C832.107 66.5467 832.294 66.4987 832.443 66.456C832.806 66.3387 833.115 66.2 833.371 66.04C833.627 65.8693 833.824 65.6773 833.963 65.464C834.102 65.2507 834.171 65.0213 834.171 64.776C834.171 64.584 834.128 64.392 834.043 64.2C833.968 63.9973 833.856 63.832 833.707 63.704C833.558 63.576 833.382 63.512 833.179 63.512C832.987 63.512 832.811 63.5707 832.651 63.688C832.491 63.8053 832.363 63.9653 832.267 64.168C832.171 64.36 832.123 64.584 832.123 64.84C832.123 65.064 832.176 65.2773 832.283 65.48C832.39 65.672 832.539 65.8587 832.731 66.04C832.923 66.2213 833.152 66.392 833.419 66.552L831.291 67.368C831.056 67.144 830.832 66.904 830.619 66.648C830.416 66.392 830.246 66.104 830.107 65.784C829.979 65.4533 829.915 65.0853 829.915 64.68C829.915 64.1893 830.011 63.7413 830.203 63.336C830.395 62.9307 830.651 62.584 830.971 62.296C831.291 61.9973 831.648 61.768 832.043 61.608C832.438 61.448 832.832 61.368 833.227 61.368C833.867 61.368 834.422 61.5173 834.891 61.816C835.36 62.1147 835.723 62.504 835.979 62.984C836.246 63.464 836.379 63.9867 836.379 64.552C836.379 65.0747 836.283 65.544 836.091 65.96C835.899 66.3653 835.638 66.728 835.307 67.048C834.987 67.3573 834.63 67.6293 834.235 67.864C833.851 68.0987 833.462 68.296 833.067 68.456C832.875 68.5413 832.635 68.6213 832.347 68.696C832.059 68.7707 831.734 68.84 831.371 68.904C831.008 68.9573 830.619 69 830.203 69.032C829.787 69.064 829.344 69.08 828.875 69.08ZM837.323 69.08C836.704 69.08 836.096 69.048 835.499 68.984C834.902 68.92 834.347 68.824 833.835 68.696C833.334 68.568 832.896 68.4133 832.523 68.232L833.627 66.504C833.947 66.5893 834.32 66.6587 834.747 66.712C835.184 66.7547 835.638 66.7867 836.107 66.808C836.587 66.8293 837.046 66.84 837.483 66.84C837.888 66.84 838.176 66.9467 838.347 67.16C838.528 67.3627 838.619 67.6187 838.619 67.928C838.619 68.2587 838.507 68.536 838.283 68.76C838.059 68.9733 837.739 69.08 837.323 69.08ZM834.635 59.912C834.326 59.912 834.059 59.8053 833.835 59.592C833.622 59.368 833.515 59.1067 833.515 58.808C833.515 58.4987 833.622 58.232 833.835 58.008C834.059 57.784 834.326 57.672 834.635 57.672C834.934 57.672 835.19 57.784 835.403 58.008C835.616 58.232 835.723 58.4987 835.723 58.808C835.723 59.1067 835.616 59.368 835.403 59.592C835.19 59.8053 834.934 59.912 834.635 59.912ZM831.867 59.896C831.558 59.896 831.291 59.7893 831.067 59.576C830.854 59.352 830.747 59.0907 830.747 58.792C830.747 58.4827 830.854 58.216 831.067 57.992C831.291 57.768 831.558 57.656 831.867 57.656C832.166 57.656 832.422 57.768 832.635 57.992C832.848 58.216 832.955 58.4827 832.955 58.792C832.955 59.0907 832.848 59.352 832.635 59.576C832.422 59.7893 832.166 59.896 831.867 59.896ZM837.344 69.08L837.504 66.84C838.144 66.84 838.634 66.808 838.976 66.744C839.317 66.68 839.552 66.5627 839.68 66.392C839.818 66.2107 839.888 65.9547 839.888 65.624C839.888 65.3253 839.845 64.968 839.76 64.552C839.685 64.136 839.584 63.704 839.456 63.256C839.338 62.808 839.21 62.3973 839.072 62.024L841.28 61.416C841.418 61.7787 841.552 62.2 841.68 62.68C841.808 63.16 841.914 63.656 842 64.168C842.085 64.6693 842.128 65.1547 842.128 65.624C842.128 66.3493 842.01 66.9413 841.776 67.4C841.541 67.848 841.21 68.1947 840.784 68.44C840.368 68.6853 839.866 68.856 839.28 68.952C838.693 69.0373 838.048 69.08 837.344 69.08ZM841.68 60.12C841.37 60.12 841.104 60.0133 840.88 59.8C840.666 59.576 840.56 59.3147 840.56 59.016C840.56 58.7067 840.666 58.44 840.88 58.216C841.104 57.992 841.37 57.88 841.68 57.88C841.978 57.88 842.234 57.992 842.448 58.216C842.661 58.44 842.768 58.7067 842.768 59.016C842.768 59.3147 842.661 59.576 842.448 59.8C842.234 60.0133 841.978 60.12 841.68 60.12ZM838.912 60.104C838.602 60.104 838.336 59.9973 838.112 59.784C837.898 59.56 837.792 59.2987 837.792 59C837.792 58.6907 837.898 58.424 838.112 58.2C838.336 57.976 838.602 57.864 838.912 57.864C839.21 57.864 839.466 57.976 839.68 58.2C839.893 58.424 840 58.6907 840 59C840 59.2987 839.893 59.56 839.68 59.784C839.466 59.9973 839.21 60.104 838.912 60.104Z" fill="#313A86"/>
<path d="M749.32 30.112C749.4 28.512 749.96 27.28 751 26.416C752.056 25.536 753.44 25.096 755.152 25.096C756.32 25.096 757.32 25.304 758.152 25.72C758.984 26.12 759.608 26.672 760.024 27.376C760.456 28.064 760.672 28.848 760.672 29.728C760.672 30.736 760.408 31.592 759.88 32.296C759.368 32.984 758.752 33.448 758.032 33.688V33.784C758.96 34.072 759.68 34.584 760.192 35.32C760.72 36.056 760.984 37 760.984 38.152C760.984 39.112 760.76 39.968 760.312 40.72C759.88 41.472 759.232 42.064 758.368 42.496C757.52 42.912 756.496 43.12 755.296 43.12C753.488 43.12 752.016 42.664 750.88 41.752C749.744 40.84 749.144 39.496 749.08 37.72H752.344C752.376 38.504 752.64 39.136 753.136 39.616C753.648 40.08 754.344 40.312 755.224 40.312C756.04 40.312 756.664 40.088 757.096 39.64C757.544 39.176 757.768 38.584 757.768 37.864C757.768 36.904 757.464 36.216 756.856 35.8C756.248 35.384 755.304 35.176 754.024 35.176H753.328V32.416H754.024C756.296 32.416 757.432 31.656 757.432 30.136C757.432 29.448 757.224 28.912 756.808 28.528C756.408 28.144 755.824 27.952 755.056 27.952C754.304 27.952 753.72 28.16 753.304 28.576C752.904 28.976 752.672 29.488 752.608 30.112H749.32ZM767.695 39.472L764.887 46.216H762.727L764.287 39.472H767.695ZM781.493 28.408H773.717V32.512C774.053 32.096 774.533 31.76 775.157 31.504C775.781 31.232 776.445 31.096 777.149 31.096C778.429 31.096 779.477 31.376 780.293 31.936C781.109 32.496 781.701 33.216 782.069 34.096C782.437 34.96 782.621 35.888 782.621 36.88C782.621 38.72 782.093 40.2 781.037 41.32C779.997 42.44 778.509 43 776.573 43C774.749 43 773.293 42.544 772.205 41.632C771.117 40.72 770.501 39.528 770.357 38.056H773.621C773.765 38.696 774.085 39.208 774.581 39.592C775.093 39.976 775.741 40.168 776.525 40.168C777.469 40.168 778.181 39.872 778.661 39.28C779.141 38.688 779.381 37.904 779.381 36.928C779.381 35.936 779.133 35.184 778.637 34.672C778.157 34.144 777.445 33.88 776.501 33.88C775.829 33.88 775.269 34.048 774.821 34.384C774.373 34.72 774.053 35.168 773.861 35.728H770.645V25.456H781.493V28.408ZM785.178 34.024C785.178 31.256 785.674 29.088 786.666 27.52C787.674 25.952 789.338 25.168 791.658 25.168C793.978 25.168 795.634 25.952 796.626 27.52C797.634 29.088 798.138 31.256 798.138 34.024C798.138 36.808 797.634 38.992 796.626 40.576C795.634 42.16 793.978 42.952 791.658 42.952C789.338 42.952 787.674 42.16 786.666 40.576C785.674 38.992 785.178 36.808 785.178 34.024ZM794.826 34.024C794.826 32.84 794.746 31.848 794.586 31.048C794.442 30.232 794.138 29.568 793.674 29.056C793.226 28.544 792.554 28.288 791.658 28.288C790.762 28.288 790.082 28.544 789.618 29.056C789.17 29.568 788.866 30.232 788.706 31.048C788.562 31.848 788.49 32.84 788.49 34.024C788.49 35.24 788.562 36.264 788.706 37.096C788.85 37.912 789.154 38.576 789.618 39.088C790.082 39.584 790.762 39.832 791.658 39.832C792.554 39.832 793.234 39.584 793.698 39.088C794.162 38.576 794.466 37.912 794.61 37.096C794.754 36.264 794.826 35.24 794.826 34.024ZM800.694 34.024C800.694 31.256 801.19 29.088 802.182 27.52C803.19 25.952 804.854 25.168 807.174 25.168C809.494 25.168 811.15 25.952 812.142 27.52C813.15 29.088 813.654 31.256 813.654 34.024C813.654 36.808 813.15 38.992 812.142 40.576C811.15 42.16 809.494 42.952 807.174 42.952C804.854 42.952 803.19 42.16 802.182 40.576C801.19 38.992 800.694 36.808 800.694 34.024ZM810.342 34.024C810.342 32.84 810.262 31.848 810.102 31.048C809.958 30.232 809.654 29.568 809.19 29.056C808.742 28.544 808.07 28.288 807.174 28.288C806.278 28.288 805.598 28.544 805.134 29.056C804.686 29.568 804.382 30.232 804.222 31.048C804.078 31.848 804.006 32.84 804.006 34.024C804.006 35.24 804.078 36.264 804.222 37.096C804.366 37.912 804.67 38.576 805.134 39.088C805.598 39.584 806.278 39.832 807.174 39.832C808.07 39.832 808.75 39.584 809.214 39.088C809.678 38.576 809.982 37.912 810.126 37.096C810.27 36.264 810.342 35.24 810.342 34.024ZM829.146 35.92H824.61V40.576H821.442V35.92H816.906V32.992H821.442V28.336H824.61V32.992H829.146V35.92Z" fill="black"/>
<defs>
<filter id="filter0_d_1307_1581" x="0" y="0" width="279" height="98" filterUnits="userSpaceOnUse" color-interpolation-filters="sRGB">
<feFlood flood-opacity="0" result="BackgroundImageFix"/>
<feColorMatrix in="SourceAlpha" type="matrix" values="0 0 0 0 0 0 0 0 0 0 0 0 0 0 0 0 0 0 127 0" result="hardAlpha"/>
<feMorphology radius="3" operator="dilate" in="SourceAlpha" result="effect1_dropShadow_1307_1581"/>
<feOffset dy="1"/>
<feGaussianBlur stdDeviation="2"/>
<feComposite in2="hardAlpha" operator="out"/>
<feColorMatrix type="matrix" values="0 0 0 0 0 0 0 0 0 0 0 0 0 0 0 0 0 0 0.25 0"/>
<feBlend mode="normal" in2="BackgroundImageFix" result="effect1_dropShadow_1307_1581"/>
<feBlend mode="normal" in="SourceGraphic" in2="effect1_dropShadow_1307_1581" result="shape"/>
</filter>
<filter id="filter1_d_1307_1581" x="325" y="0" width="279" height="98" filterUnits="userSpaceOnUse" color-interpolation-filters="sRGB">
<feFlood flood-opacity="0" result="BackgroundImageFix"/>
<feColorMatrix in="SourceAlpha" type="matrix" values="0 0 0 0 0 0 0 0 0 0 0 0 0 0 0 0 0 0 127 0" result="hardAlpha"/>
<feMorphology radius="3" operator="dilate" in="SourceAlpha" result="effect1_dropShadow_1307_1581"/>
<feOffset dy="1"/>
<feGaussianBlur stdDeviation="2"/>
<feComposite in2="hardAlpha" operator="out"/>
<feColorMatrix type="matrix" values="0 0 0 0 0 0 0 0 0 0 0 0 0 0 0 0 0 0 0.25 0"/>
<feBlend mode="normal" in2="BackgroundImageFix" result="effect1_dropShadow_1307_1581"/>
<feBlend mode="normal" in="SourceGraphic" in2="effect1_dropShadow_1307_1581" result="shape"/>
</filter>
<filter id="filter2_d_1307_1581" x="650" y="0" width="279" height="98" filterUnits="userSpaceOnUse" color-interpolation-filters="sRGB">
<feFlood flood-opacity="0" result="BackgroundImageFix"/>
<feColorMatrix in="SourceAlpha" type="matrix" values="0 0 0 0 0 0 0 0 0 0 0 0 0 0 0 0 0 0 127 0" result="hardAlpha"/>
<feMorphology radius="3" operator="dilate" in="SourceAlpha" result="effect1_dropShadow_1307_1581"/>
<feOffset dy="1"/>
<feGaussianBlur stdDeviation="2"/>
<feComposite in2="hardAlpha" operator="out"/>
<feColorMatrix type="matrix" values="0 0 0 0 0 0 0 0 0 0 0 0 0 0 0 0 0 0 0.25 0"/>
<feBlend mode="normal" in2="BackgroundImageFix" result="effect1_dropShadow_1307_1581"/>
<feBlend mode="normal" in="SourceGraphic" in2="effect1_dropShadow_1307_1581" result="shape"/>
</filter>
</defs>
</svg>
