<svg width="929" height="98" viewBox="0 0 929 98" fill="none" xmlns="http://www.w3.org/2000/svg">
<g filter="url(#filter0_d_1241_1521)">
<rect x="7" y="6" width="265" height="84" rx="4" fill="white"/>
</g>
<path d="M74.955 62.86C74.955 63.47 74.815 64.03 74.535 64.54C74.255 65.04 73.825 65.445 73.245 65.755C72.665 66.065 71.945 66.22 71.085 66.22H69.495V70H66.93V59.47H71.085C71.925 59.47 72.635 59.615 73.215 59.905C73.795 60.195 74.23 60.595 74.52 61.105C74.81 61.615 74.955 62.2 74.955 62.86ZM70.89 64.18C71.38 64.18 71.745 64.065 71.985 63.835C72.225 63.605 72.345 63.28 72.345 62.86C72.345 62.44 72.225 62.115 71.985 61.885C71.745 61.655 71.38 61.54 70.89 61.54H69.495V64.18H70.89ZM75.7804 65.8C75.7804 64.94 75.9404 64.185 76.2604 63.535C76.5904 62.885 77.0354 62.385 77.5954 62.035C78.1554 61.685 78.7804 61.51 79.4704 61.51C80.0604 61.51 80.5754 61.63 81.0154 61.87C81.4654 62.11 81.8104 62.425 82.0504 62.815V61.63H84.6154V70H82.0504V68.815C81.8004 69.205 81.4504 69.52 81.0004 69.76C80.5604 70 80.0454 70.12 79.4554 70.12C78.7754 70.12 78.1554 69.945 77.5954 69.595C77.0354 69.235 76.5904 68.73 76.2604 68.08C75.9404 67.42 75.7804 66.66 75.7804 65.8ZM82.0504 65.815C82.0504 65.175 81.8704 64.67 81.5104 64.3C81.1604 63.93 80.7304 63.745 80.2204 63.745C79.7104 63.745 79.2754 63.93 78.9154 64.3C78.5654 64.66 78.3904 65.16 78.3904 65.8C78.3904 66.44 78.5654 66.95 78.9154 67.33C79.2754 67.7 79.7104 67.885 80.2204 67.885C80.7304 67.885 81.1604 67.7 81.5104 67.33C81.8704 66.96 82.0504 66.455 82.0504 65.815ZM85.961 65.815C85.961 64.945 86.136 64.185 86.486 63.535C86.846 62.885 87.341 62.385 87.971 62.035C88.611 61.685 89.341 61.51 90.161 61.51C91.211 61.51 92.086 61.785 92.786 62.335C93.496 62.885 93.961 63.66 94.181 64.66H91.451C91.221 64.02 90.776 63.7 90.116 63.7C89.646 63.7 89.271 63.885 88.991 64.255C88.711 64.615 88.571 65.135 88.571 65.815C88.571 66.495 88.711 67.02 88.991 67.39C89.271 67.75 89.646 67.93 90.116 67.93C90.776 67.93 91.221 67.61 91.451 66.97H94.181C93.961 67.95 93.496 68.72 92.786 69.28C92.076 69.84 91.201 70.12 90.161 70.12C89.341 70.12 88.611 69.945 87.971 69.595C87.341 69.245 86.846 68.745 86.486 68.095C86.136 67.445 85.961 66.685 85.961 65.815ZM100.668 70L98.118 66.49V70H95.553V58.9H98.118V65.035L100.653 61.63H103.818L100.338 65.83L103.848 70H100.668ZM104.316 65.8C104.316 64.94 104.476 64.185 104.796 63.535C105.126 62.885 105.571 62.385 106.131 62.035C106.691 61.685 107.316 61.51 108.006 61.51C108.596 61.51 109.111 61.63 109.551 61.87C110.001 62.11 110.346 62.425 110.586 62.815V61.63H113.151V70H110.586V68.815C110.336 69.205 109.986 69.52 109.536 69.76C109.096 70 108.581 70.12 107.991 70.12C107.311 70.12 106.691 69.945 106.131 69.595C105.571 69.235 105.126 68.73 104.796 68.08C104.476 67.42 104.316 66.66 104.316 65.8ZM110.586 65.815C110.586 65.175 110.406 64.67 110.046 64.3C109.696 63.93 109.266 63.745 108.756 63.745C108.246 63.745 107.811 63.93 107.451 64.3C107.101 64.66 106.926 65.16 106.926 65.8C106.926 66.44 107.101 66.95 107.451 67.33C107.811 67.7 108.246 67.885 108.756 67.885C109.266 67.885 109.696 67.7 110.046 67.33C110.406 66.96 110.586 66.455 110.586 65.815ZM118.186 61.51C118.776 61.51 119.291 61.63 119.731 61.87C120.181 62.11 120.526 62.425 120.766 62.815V61.63H123.331V69.985C123.331 70.755 123.176 71.45 122.866 72.07C122.566 72.7 122.101 73.2 121.471 73.57C120.851 73.94 120.076 74.125 119.146 74.125C117.906 74.125 116.901 73.83 116.131 73.24C115.361 72.66 114.921 71.87 114.811 70.87H117.346C117.426 71.19 117.616 71.44 117.916 71.62C118.216 71.81 118.586 71.905 119.026 71.905C119.556 71.905 119.976 71.75 120.286 71.44C120.606 71.14 120.766 70.655 120.766 69.985V68.8C120.516 69.19 120.171 69.51 119.731 69.76C119.291 70 118.776 70.12 118.186 70.12C117.496 70.12 116.871 69.945 116.311 69.595C115.751 69.235 115.306 68.73 114.976 68.08C114.656 67.42 114.496 66.66 114.496 65.8C114.496 64.94 114.656 64.185 114.976 63.535C115.306 62.885 115.751 62.385 116.311 62.035C116.871 61.685 117.496 61.51 118.186 61.51ZM120.766 65.815C120.766 65.175 120.586 64.67 120.226 64.3C119.876 63.93 119.446 63.745 118.936 63.745C118.426 63.745 117.991 63.93 117.631 64.3C117.281 64.66 117.106 65.16 117.106 65.8C117.106 66.44 117.281 66.95 117.631 67.33C117.991 67.7 118.426 67.885 118.936 67.885C119.446 67.885 119.876 67.7 120.226 67.33C120.586 66.96 120.766 66.455 120.766 65.815ZM133.077 65.68C133.077 65.92 133.062 66.17 133.032 66.43H127.227C127.267 66.95 127.432 67.35 127.722 67.63C128.022 67.9 128.387 68.035 128.817 68.035C129.457 68.035 129.902 67.765 130.152 67.225H132.882C132.742 67.775 132.487 68.27 132.117 68.71C131.757 69.15 131.302 69.495 130.752 69.745C130.202 69.995 129.587 70.12 128.907 70.12C128.087 70.12 127.357 69.945 126.717 69.595C126.077 69.245 125.577 68.745 125.217 68.095C124.857 67.445 124.677 66.685 124.677 65.815C124.677 64.945 124.852 64.185 125.202 63.535C125.562 62.885 126.062 62.385 126.702 62.035C127.342 61.685 128.077 61.51 128.907 61.51C129.717 61.51 130.437 61.68 131.067 62.02C131.697 62.36 132.187 62.845 132.537 63.475C132.897 64.105 133.077 64.84 133.077 65.68ZM130.452 65.005C130.452 64.565 130.302 64.215 130.002 63.955C129.702 63.695 129.327 63.565 128.877 63.565C128.447 63.565 128.082 63.69 127.782 63.94C127.492 64.19 127.312 64.545 127.242 65.005H130.452ZM141.554 59.47C142.664 59.47 143.634 59.69 144.464 60.13C145.294 60.57 145.934 61.19 146.384 61.99C146.844 62.78 147.074 63.695 147.074 64.735C147.074 65.765 146.844 66.68 146.384 67.48C145.934 68.28 145.289 68.9 144.449 69.34C143.619 69.78 142.654 70 141.554 70H137.609V59.47H141.554ZM141.389 67.78C142.359 67.78 143.114 67.515 143.654 66.985C144.194 66.455 144.464 65.705 144.464 64.735C144.464 63.765 144.194 63.01 143.654 62.47C143.114 61.93 142.359 61.66 141.389 61.66H140.174V67.78H141.389ZM156.397 65.68C156.397 65.92 156.382 66.17 156.352 66.43H150.547C150.587 66.95 150.752 67.35 151.042 67.63C151.342 67.9 151.707 68.035 152.137 68.035C152.777 68.035 153.222 67.765 153.472 67.225H156.202C156.062 67.775 155.807 68.27 155.437 68.71C155.077 69.15 154.622 69.495 154.072 69.745C153.522 69.995 152.907 70.12 152.227 70.12C151.407 70.12 150.677 69.945 150.037 69.595C149.397 69.245 148.897 68.745 148.537 68.095C148.177 67.445 147.997 66.685 147.997 65.815C147.997 64.945 148.172 64.185 148.522 63.535C148.882 62.885 149.382 62.385 150.022 62.035C150.662 61.685 151.397 61.51 152.227 61.51C153.037 61.51 153.757 61.68 154.387 62.02C155.017 62.36 155.507 62.845 155.857 63.475C156.217 64.105 156.397 64.84 156.397 65.68ZM153.772 65.005C153.772 64.565 153.622 64.215 153.322 63.955C153.022 63.695 152.647 63.565 152.197 63.565C151.767 63.565 151.402 63.69 151.102 63.94C150.812 64.19 150.632 64.545 150.562 65.005H153.772ZM160.315 58.9V70H157.75V58.9H160.315ZM163.464 60.76C163.014 60.76 162.644 60.63 162.354 60.37C162.074 60.1 161.934 59.77 161.934 59.38C161.934 58.98 162.074 58.65 162.354 58.39C162.644 58.12 163.014 57.985 163.464 57.985C163.904 57.985 164.264 58.12 164.544 58.39C164.834 58.65 164.979 58.98 164.979 59.38C164.979 59.77 164.834 60.1 164.544 60.37C164.264 60.63 163.904 60.76 163.464 60.76ZM164.739 61.63V70H162.174V61.63H164.739ZM170.363 67.6L172.178 61.63H174.908L171.938 70H168.773L165.803 61.63H168.548L170.363 67.6ZM183.878 65.68C183.878 65.92 183.863 66.17 183.833 66.43H178.028C178.068 66.95 178.233 67.35 178.523 67.63C178.823 67.9 179.188 68.035 179.618 68.035C180.258 68.035 180.703 67.765 180.953 67.225H183.683C183.543 67.775 183.288 68.27 182.918 68.71C182.558 69.15 182.103 69.495 181.553 69.745C181.003 69.995 180.388 70.12 179.708 70.12C178.888 70.12 178.158 69.945 177.518 69.595C176.878 69.245 176.378 68.745 176.018 68.095C175.658 67.445 175.478 66.685 175.478 65.815C175.478 64.945 175.653 64.185 176.003 63.535C176.363 62.885 176.863 62.385 177.503 62.035C178.143 61.685 178.878 61.51 179.708 61.51C180.518 61.51 181.238 61.68 181.868 62.02C182.498 62.36 182.988 62.845 183.338 63.475C183.698 64.105 183.878 64.84 183.878 65.68ZM181.253 65.005C181.253 64.565 181.103 64.215 180.803 63.955C180.503 63.695 180.128 63.565 179.678 63.565C179.248 63.565 178.883 63.69 178.583 63.94C178.293 64.19 178.113 64.545 178.043 65.005H181.253ZM187.796 63.025C188.096 62.565 188.471 62.205 188.921 61.945C189.371 61.675 189.871 61.54 190.421 61.54V64.255H189.716C189.076 64.255 188.596 64.395 188.276 64.675C187.956 64.945 187.796 65.425 187.796 66.115V70H185.231V61.63H187.796V63.025ZM199.537 65.68C199.537 65.92 199.522 66.17 199.492 66.43H193.687C193.727 66.95 193.892 67.35 194.182 67.63C194.482 67.9 194.847 68.035 195.277 68.035C195.917 68.035 196.362 67.765 196.612 67.225H199.342C199.202 67.775 198.947 68.27 198.577 68.71C198.217 69.15 197.762 69.495 197.212 69.745C196.662 69.995 196.047 70.12 195.367 70.12C194.547 70.12 193.817 69.945 193.177 69.595C192.537 69.245 192.037 68.745 191.677 68.095C191.317 67.445 191.137 66.685 191.137 65.815C191.137 64.945 191.312 64.185 191.662 63.535C192.022 62.885 192.522 62.385 193.162 62.035C193.802 61.685 194.537 61.51 195.367 61.51C196.177 61.51 196.897 61.68 197.527 62.02C198.157 62.36 198.647 62.845 198.997 63.475C199.357 64.105 199.537 64.84 199.537 65.68ZM196.912 65.005C196.912 64.565 196.762 64.215 196.462 63.955C196.162 63.695 195.787 63.565 195.337 63.565C194.907 63.565 194.542 63.69 194.242 63.94C193.952 64.19 193.772 64.545 193.702 65.005H196.912ZM200.38 65.8C200.38 64.94 200.54 64.185 200.86 63.535C201.19 62.885 201.635 62.385 202.195 62.035C202.755 61.685 203.38 61.51 204.07 61.51C204.62 61.51 205.12 61.625 205.57 61.855C206.03 62.085 206.39 62.395 206.65 62.785V58.9H209.215V70H206.65V68.8C206.41 69.2 206.065 69.52 205.615 69.76C205.175 70 204.66 70.12 204.07 70.12C203.38 70.12 202.755 69.945 202.195 69.595C201.635 69.235 201.19 68.73 200.86 68.08C200.54 67.42 200.38 66.66 200.38 65.8ZM206.65 65.815C206.65 65.175 206.47 64.67 206.11 64.3C205.76 63.93 205.33 63.745 204.82 63.745C204.31 63.745 203.875 63.93 203.515 64.3C203.165 64.66 202.99 65.16 202.99 65.8C202.99 66.44 203.165 66.95 203.515 67.33C203.875 67.7 204.31 67.885 204.82 67.885C205.33 67.885 205.76 67.7 206.11 67.33C206.47 66.96 206.65 66.455 206.65 65.815Z" fill="#313A86"/>
<path d="M101.496 37.864C101.736 39.128 102.472 39.76 103.704 39.76C104.552 39.76 105.152 39.384 105.504 38.632C105.856 37.88 106.032 36.656 106.032 34.96C105.68 35.456 105.2 35.84 104.592 36.112C103.984 36.384 103.304 36.52 102.552 36.52C101.528 36.52 100.616 36.312 99.816 35.896C99.016 35.464 98.384 34.832 97.92 34C97.472 33.152 97.248 32.128 97.248 30.928C97.248 29.744 97.488 28.712 97.968 27.832C98.464 26.952 99.16 26.272 100.056 25.792C100.968 25.312 102.04 25.072 103.272 25.072C105.64 25.072 107.296 25.808 108.24 27.28C109.184 28.752 109.656 30.92 109.656 33.784C109.656 35.864 109.464 37.584 109.08 38.944C108.712 40.288 108.08 41.312 107.184 42.016C106.304 42.72 105.096 43.072 103.56 43.072C102.344 43.072 101.304 42.832 100.44 42.352C99.592 41.872 98.936 41.24 98.472 40.456C98.024 39.672 97.768 38.808 97.704 37.864H101.496ZM103.488 33.28C104.16 33.28 104.696 33.08 105.096 32.68C105.496 32.264 105.696 31.704 105.696 31C105.696 30.232 105.488 29.64 105.072 29.224C104.656 28.808 104.096 28.6 103.392 28.6C102.688 28.6 102.128 28.816 101.712 29.248C101.312 29.664 101.112 30.24 101.112 30.976C101.112 31.664 101.312 32.224 101.712 32.656C102.128 33.072 102.72 33.28 103.488 33.28ZM116.67 39.208L114.006 46.096H111.39L112.782 39.208H116.67ZM118.832 39.88V36.568L126.416 25.72H131V36.328H132.968V39.88H131V43H126.896V39.88H118.832ZM127.184 30.232L123.152 36.328H127.184V30.232ZM134.978 34C134.978 31.248 135.506 29.08 136.562 27.496C137.634 25.912 139.354 25.12 141.722 25.12C144.09 25.12 145.802 25.912 146.858 27.496C147.93 29.08 148.466 31.248 148.466 34C148.466 36.784 147.93 38.968 146.858 40.552C145.802 42.136 144.09 42.928 141.722 42.928C139.354 42.928 137.634 42.136 136.562 40.552C135.506 38.968 134.978 36.784 134.978 34ZM144.434 34C144.434 32.384 144.258 31.144 143.906 30.28C143.554 29.4 142.826 28.96 141.722 28.96C140.618 28.96 139.89 29.4 139.538 30.28C139.186 31.144 139.01 32.384 139.01 34C139.01 35.088 139.074 35.992 139.202 36.712C139.33 37.416 139.586 37.992 139.97 38.44C140.37 38.872 140.954 39.088 141.722 39.088C142.49 39.088 143.066 38.872 143.45 38.44C143.85 37.992 144.114 37.416 144.242 36.712C144.37 35.992 144.434 35.088 144.434 34ZM150.635 34C150.635 31.248 151.163 29.08 152.219 27.496C153.291 25.912 155.011 25.12 157.379 25.12C159.747 25.12 161.459 25.912 162.515 27.496C163.587 29.08 164.123 31.248 164.123 34C164.123 36.784 163.587 38.968 162.515 40.552C161.459 42.136 159.747 42.928 157.379 42.928C155.011 42.928 153.291 42.136 152.219 40.552C151.163 38.968 150.635 36.784 150.635 34ZM160.091 34C160.091 32.384 159.915 31.144 159.563 30.28C159.211 29.4 158.483 28.96 157.379 28.96C156.275 28.96 155.547 29.4 155.195 30.28C154.843 31.144 154.667 32.384 154.667 34C154.667 35.088 154.731 35.992 154.859 36.712C154.987 37.416 155.243 37.992 155.627 38.44C156.027 38.872 156.611 39.088 157.379 39.088C158.147 39.088 158.723 38.872 159.107 38.44C159.507 37.992 159.771 37.416 159.899 36.712C160.027 35.992 160.091 35.088 160.091 34ZM178.867 36.448H174.691V40.72H170.803V36.448H166.627V32.776H170.803V28.48H174.691V32.776H178.867V36.448Z" fill="black"/>
<g filter="url(#filter1_d_1241_1521)">
<rect x="332" y="6" width="265" height="84" rx="4" fill="white"/>
</g>
<path d="M420.05 59.47V70H417.485V65.665H413.495V70H410.93V59.47H413.495V63.595H417.485V59.47H420.05ZM421.392 65.8C421.392 64.94 421.552 64.185 421.872 63.535C422.202 62.885 422.647 62.385 423.207 62.035C423.767 61.685 424.392 61.51 425.082 61.51C425.672 61.51 426.187 61.63 426.627 61.87C427.077 62.11 427.422 62.425 427.662 62.815V61.63H430.227V70H427.662V68.815C427.412 69.205 427.062 69.52 426.612 69.76C426.172 70 425.657 70.12 425.067 70.12C424.387 70.12 423.767 69.945 423.207 69.595C422.647 69.235 422.202 68.73 421.872 68.08C421.552 67.42 421.392 66.66 421.392 65.8ZM427.662 65.815C427.662 65.175 427.482 64.67 427.122 64.3C426.772 63.93 426.342 63.745 425.832 63.745C425.322 63.745 424.887 63.93 424.527 64.3C424.177 64.66 424.002 65.16 424.002 65.8C424.002 66.44 424.177 66.95 424.527 67.33C424.887 67.7 425.322 67.885 425.832 67.885C426.342 67.885 426.772 67.7 427.122 67.33C427.482 66.96 427.662 66.455 427.662 65.815ZM434.647 62.815C434.897 62.425 435.242 62.11 435.682 61.87C436.122 61.63 436.637 61.51 437.227 61.51C437.917 61.51 438.542 61.685 439.102 62.035C439.662 62.385 440.102 62.885 440.422 63.535C440.752 64.185 440.917 64.94 440.917 65.8C440.917 66.66 440.752 67.42 440.422 68.08C440.102 68.73 439.662 69.235 439.102 69.595C438.542 69.945 437.917 70.12 437.227 70.12C436.647 70.12 436.132 70 435.682 69.76C435.242 69.52 434.897 69.21 434.647 68.83V73.99H432.082V61.63H434.647V62.815ZM438.307 65.8C438.307 65.16 438.127 64.66 437.767 64.3C437.417 63.93 436.982 63.745 436.462 63.745C435.952 63.745 435.517 63.93 435.157 64.3C434.807 64.67 434.632 65.175 434.632 65.815C434.632 66.455 434.807 66.96 435.157 67.33C435.517 67.7 435.952 67.885 436.462 67.885C436.972 67.885 437.407 67.7 437.767 67.33C438.127 66.95 438.307 66.44 438.307 65.8ZM444.828 62.815C445.078 62.425 445.423 62.11 445.863 61.87C446.303 61.63 446.818 61.51 447.408 61.51C448.098 61.51 448.723 61.685 449.283 62.035C449.843 62.385 450.283 62.885 450.603 63.535C450.933 64.185 451.098 64.94 451.098 65.8C451.098 66.66 450.933 67.42 450.603 68.08C450.283 68.73 449.843 69.235 449.283 69.595C448.723 69.945 448.098 70.12 447.408 70.12C446.828 70.12 446.313 70 445.863 69.76C445.423 69.52 445.078 69.21 444.828 68.83V73.99H442.263V61.63H444.828V62.815ZM448.488 65.8C448.488 65.16 448.308 64.66 447.948 64.3C447.598 63.93 447.163 63.745 446.643 63.745C446.133 63.745 445.698 63.93 445.338 64.3C444.988 64.67 444.813 65.175 444.813 65.815C444.813 66.455 444.988 66.96 445.338 67.33C445.698 67.7 446.133 67.885 446.643 67.885C447.153 67.885 447.588 67.7 447.948 67.33C448.308 66.95 448.488 66.44 448.488 65.8ZM460.994 61.63L455.744 73.975H452.984L454.904 69.715L451.499 61.63H454.364L456.299 66.865L458.219 61.63H460.994ZM464.665 64.72C464.665 63.68 464.89 62.755 465.34 61.945C465.79 61.125 466.415 60.49 467.215 60.04C468.025 59.58 468.94 59.35 469.96 59.35C471.21 59.35 472.28 59.68 473.17 60.34C474.06 61 474.655 61.9 474.955 63.04H472.135C471.925 62.6 471.625 62.265 471.235 62.035C470.855 61.805 470.42 61.69 469.93 61.69C469.14 61.69 468.5 61.965 468.01 62.515C467.52 63.065 467.275 63.8 467.275 64.72C467.275 65.64 467.52 66.375 468.01 66.925C468.5 67.475 469.14 67.75 469.93 67.75C470.42 67.75 470.855 67.635 471.235 67.405C471.625 67.175 471.925 66.84 472.135 66.4H474.955C474.655 67.54 474.06 68.44 473.17 69.1C472.28 69.75 471.21 70.075 469.96 70.075C468.94 70.075 468.025 69.85 467.215 69.4C466.415 68.94 465.79 68.305 465.34 67.495C464.89 66.685 464.665 65.76 464.665 64.72ZM479.091 58.9V70H476.526V58.9H479.091ZM482.24 60.76C481.79 60.76 481.42 60.63 481.13 60.37C480.85 60.1 480.71 59.77 480.71 59.38C480.71 58.98 480.85 58.65 481.13 58.39C481.42 58.12 481.79 57.985 482.24 57.985C482.68 57.985 483.04 58.12 483.32 58.39C483.61 58.65 483.755 58.98 483.755 59.38C483.755 59.77 483.61 60.1 483.32 60.37C483.04 60.63 482.68 60.76 482.24 60.76ZM483.515 61.63V70H480.95V61.63H483.515ZM493.263 65.68C493.263 65.92 493.248 66.17 493.218 66.43H487.413C487.453 66.95 487.618 67.35 487.908 67.63C488.208 67.9 488.573 68.035 489.003 68.035C489.643 68.035 490.088 67.765 490.338 67.225H493.068C492.928 67.775 492.673 68.27 492.303 68.71C491.943 69.15 491.488 69.495 490.938 69.745C490.388 69.995 489.773 70.12 489.093 70.12C488.273 70.12 487.543 69.945 486.903 69.595C486.263 69.245 485.763 68.745 485.403 68.095C485.043 67.445 484.863 66.685 484.863 65.815C484.863 64.945 485.038 64.185 485.388 63.535C485.748 62.885 486.248 62.385 486.888 62.035C487.528 61.685 488.263 61.51 489.093 61.51C489.903 61.51 490.623 61.68 491.253 62.02C491.883 62.36 492.373 62.845 492.723 63.475C493.083 64.105 493.263 64.84 493.263 65.68ZM490.638 65.005C490.638 64.565 490.488 64.215 490.188 63.955C489.888 63.695 489.513 63.565 489.063 63.565C488.633 63.565 488.268 63.69 487.968 63.94C487.678 64.19 487.498 64.545 487.428 65.005H490.638ZM499.717 61.54C500.697 61.54 501.477 61.86 502.057 62.5C502.647 63.13 502.942 64 502.942 65.11V70H500.392V65.455C500.392 64.895 500.247 64.46 499.957 64.15C499.667 63.84 499.277 63.685 498.787 63.685C498.297 63.685 497.907 63.84 497.617 64.15C497.327 64.46 497.182 64.895 497.182 65.455V70H494.617V61.63H497.182V62.74C497.442 62.37 497.792 62.08 498.232 61.87C498.672 61.65 499.167 61.54 499.717 61.54ZM509.389 67.825V70H508.084C507.154 70 506.429 69.775 505.909 69.325C505.389 68.865 505.129 68.12 505.129 67.09V63.76H504.109V61.63H505.129V59.59H507.694V61.63H509.374V63.76H507.694V67.12C507.694 67.37 507.754 67.55 507.874 67.66C507.994 67.77 508.194 67.825 508.474 67.825H509.389ZM514.223 70.12C513.493 70.12 512.843 69.995 512.273 69.745C511.703 69.495 511.253 69.155 510.923 68.725C510.593 68.285 510.408 67.795 510.368 67.255H512.903C512.933 67.545 513.068 67.78 513.308 67.96C513.548 68.14 513.843 68.23 514.193 68.23C514.513 68.23 514.758 68.17 514.928 68.05C515.108 67.92 515.198 67.755 515.198 67.555C515.198 67.315 515.073 67.14 514.823 67.03C514.573 66.91 514.168 66.78 513.608 66.64C513.008 66.5 512.508 66.355 512.108 66.205C511.708 66.045 511.363 65.8 511.073 65.47C510.783 65.13 510.638 64.675 510.638 64.105C510.638 63.625 510.768 63.19 511.028 62.8C511.298 62.4 511.688 62.085 512.198 61.855C512.718 61.625 513.333 61.51 514.043 61.51C515.093 61.51 515.918 61.77 516.518 62.29C517.128 62.81 517.478 63.5 517.568 64.36H515.198C515.158 64.07 515.028 63.84 514.808 63.67C514.598 63.5 514.318 63.415 513.968 63.415C513.668 63.415 513.438 63.475 513.278 63.595C513.118 63.705 513.038 63.86 513.038 64.06C513.038 64.3 513.163 64.48 513.413 64.6C513.673 64.72 514.073 64.84 514.613 64.96C515.233 65.12 515.738 65.28 516.128 65.44C516.518 65.59 516.858 65.84 517.148 66.19C517.448 66.53 517.603 66.99 517.613 67.57C517.613 68.06 517.473 68.5 517.193 68.89C516.923 69.27 516.528 69.57 516.008 69.79C515.498 70.01 514.903 70.12 514.223 70.12Z" fill="#313A86"/>
<path d="M426.936 39.712C427.48 39.28 427.728 39.08 427.68 39.112C429.248 37.816 430.48 36.752 431.376 35.92C432.288 35.088 433.056 34.216 433.68 33.304C434.304 32.392 434.616 31.504 434.616 30.64C434.616 29.984 434.464 29.472 434.16 29.104C433.856 28.736 433.4 28.552 432.792 28.552C432.184 28.552 431.704 28.784 431.352 29.248C431.016 29.696 430.848 30.336 430.848 31.168H426.888C426.92 29.808 427.208 28.672 427.752 27.76C428.312 26.848 429.04 26.176 429.936 25.744C430.848 25.312 431.856 25.096 432.96 25.096C434.864 25.096 436.296 25.584 437.256 26.56C438.232 27.536 438.72 28.808 438.72 30.376C438.72 32.088 438.136 33.68 436.968 35.152C435.8 36.608 434.312 38.032 432.504 39.424H438.984V42.76H426.936V39.712ZM445.615 39.208L442.951 46.096H440.335L441.727 39.208H445.615ZM447.25 29.296V25.48H453.898V43H449.626V29.296H447.25ZM456.705 34C456.705 31.248 457.233 29.08 458.289 27.496C459.361 25.912 461.081 25.12 463.449 25.12C465.817 25.12 467.529 25.912 468.585 27.496C469.657 29.08 470.193 31.248 470.193 34C470.193 36.784 469.657 38.968 468.585 40.552C467.529 42.136 465.817 42.928 463.449 42.928C461.081 42.928 459.361 42.136 458.289 40.552C457.233 38.968 456.705 36.784 456.705 34ZM466.161 34C466.161 32.384 465.985 31.144 465.633 30.28C465.281 29.4 464.553 28.96 463.449 28.96C462.345 28.96 461.617 29.4 461.265 30.28C460.913 31.144 460.737 32.384 460.737 34C460.737 35.088 460.801 35.992 460.929 36.712C461.057 37.416 461.313 37.992 461.697 38.44C462.097 38.872 462.681 39.088 463.449 39.088C464.217 39.088 464.793 38.872 465.177 38.44C465.577 37.992 465.841 37.416 465.969 36.712C466.097 35.992 466.161 35.088 466.161 34ZM472.361 34C472.361 31.248 472.889 29.08 473.945 27.496C475.017 25.912 476.737 25.12 479.105 25.12C481.473 25.12 483.185 25.912 484.241 27.496C485.313 29.08 485.849 31.248 485.849 34C485.849 36.784 485.313 38.968 484.241 40.552C483.185 42.136 481.473 42.928 479.105 42.928C476.737 42.928 475.017 42.136 473.945 40.552C472.889 38.968 472.361 36.784 472.361 34ZM481.817 34C481.817 32.384 481.641 31.144 481.289 30.28C480.937 29.4 480.209 28.96 479.105 28.96C478.001 28.96 477.273 29.4 476.921 30.28C476.569 31.144 476.393 32.384 476.393 34C476.393 35.088 476.457 35.992 476.585 36.712C476.713 37.416 476.969 37.992 477.353 38.44C477.753 38.872 478.337 39.088 479.105 39.088C479.873 39.088 480.449 38.872 480.833 38.44C481.233 37.992 481.497 37.416 481.625 36.712C481.753 35.992 481.817 35.088 481.817 34ZM500.594 36.448H496.418V40.72H492.53V36.448H488.354V32.776H492.53V28.48H496.418V32.776H500.594V36.448Z" fill="black"/>
<g filter="url(#filter2_d_1241_1521)">
<rect x="657" y="6" width="265" height="84" rx="4" fill="white"/>
</g>
<path d="M737.385 60.285H732.705V62.355C732.905 62.135 733.185 61.955 733.545 61.815C733.905 61.675 734.295 61.605 734.715 61.605C735.465 61.605 736.085 61.775 736.575 62.115C737.075 62.455 737.44 62.895 737.67 63.435C737.9 63.975 738.015 64.56 738.015 65.19C738.015 66.36 737.685 67.29 737.025 67.98C736.365 68.66 735.435 69 734.235 69C733.435 69 732.74 68.865 732.15 68.595C731.56 68.315 731.105 67.93 730.785 67.44C730.465 66.95 730.29 66.385 730.26 65.745H732.765C732.825 66.055 732.97 66.315 733.2 66.525C733.43 66.725 733.745 66.825 734.145 66.825C734.615 66.825 734.965 66.675 735.195 66.375C735.425 66.075 735.54 65.675 735.54 65.175C735.54 64.685 735.42 64.31 735.18 64.05C734.94 63.79 734.59 63.66 734.13 63.66C733.79 63.66 733.51 63.745 733.29 63.915C733.07 64.075 732.925 64.29 732.855 64.56H730.38V58.035H737.385V60.285ZM746.675 69.105C745.905 69.105 745.215 68.98 744.605 68.73C743.995 68.48 743.505 68.11 743.135 67.62C742.775 67.13 742.585 66.54 742.565 65.85H745.295C745.335 66.24 745.47 66.54 745.7 66.75C745.93 66.95 746.23 67.05 746.6 67.05C746.98 67.05 747.28 66.965 747.5 66.795C747.72 66.615 747.83 66.37 747.83 66.06C747.83 65.8 747.74 65.585 747.56 65.415C747.39 65.245 747.175 65.105 746.915 64.995C746.665 64.885 746.305 64.76 745.835 64.62C745.155 64.41 744.6 64.2 744.17 63.99C743.74 63.78 743.37 63.47 743.06 63.06C742.75 62.65 742.595 62.115 742.595 61.455C742.595 60.475 742.95 59.71 743.66 59.16C744.37 58.6 745.295 58.32 746.435 58.32C747.595 58.32 748.53 58.6 749.24 59.16C749.95 59.71 750.33 60.48 750.38 61.47H747.605C747.585 61.13 747.46 60.865 747.23 60.675C747 60.475 746.705 60.375 746.345 60.375C746.035 60.375 745.785 60.46 745.595 60.63C745.405 60.79 745.31 61.025 745.31 61.335C745.31 61.675 745.47 61.94 745.79 62.13C746.11 62.32 746.61 62.525 747.29 62.745C747.97 62.975 748.52 63.195 748.94 63.405C749.37 63.615 749.74 63.92 750.05 64.32C750.36 64.72 750.515 65.235 750.515 65.865C750.515 66.465 750.36 67.01 750.05 67.5C749.75 67.99 749.31 68.38 748.73 68.67C748.15 68.96 747.465 69.105 746.675 69.105ZM756.758 66.825V69H755.453C754.523 69 753.798 68.775 753.278 68.325C752.758 67.865 752.498 67.12 752.498 66.09V62.76H751.478V60.63H752.498V58.59H755.063V60.63H756.743V62.76H755.063V66.12C755.063 66.37 755.123 66.55 755.243 66.66C755.363 66.77 755.563 66.825 755.843 66.825H756.758ZM757.677 64.8C757.677 63.94 757.837 63.185 758.157 62.535C758.487 61.885 758.932 61.385 759.492 61.035C760.052 60.685 760.677 60.51 761.367 60.51C761.957 60.51 762.472 60.63 762.912 60.87C763.362 61.11 763.707 61.425 763.947 61.815V60.63H766.512V69H763.947V67.815C763.697 68.205 763.347 68.52 762.897 68.76C762.457 69 761.942 69.12 761.352 69.12C760.672 69.12 760.052 68.945 759.492 68.595C758.932 68.235 758.487 67.73 758.157 67.08C757.837 66.42 757.677 65.66 757.677 64.8ZM763.947 64.815C763.947 64.175 763.767 63.67 763.407 63.3C763.057 62.93 762.627 62.745 762.117 62.745C761.607 62.745 761.172 62.93 760.812 63.3C760.462 63.66 760.287 64.16 760.287 64.8C760.287 65.44 760.462 65.95 760.812 66.33C761.172 66.7 761.607 66.885 762.117 66.885C762.627 66.885 763.057 66.7 763.407 66.33C763.767 65.96 763.947 65.455 763.947 64.815ZM770.933 62.025C771.233 61.565 771.608 61.205 772.058 60.945C772.508 60.675 773.008 60.54 773.558 60.54V63.255H772.853C772.213 63.255 771.733 63.395 771.413 63.675C771.093 63.945 770.933 64.425 770.933 65.115V69H768.368V60.63H770.933V62.025ZM778.189 69.12C777.459 69.12 776.809 68.995 776.239 68.745C775.669 68.495 775.219 68.155 774.889 67.725C774.559 67.285 774.374 66.795 774.334 66.255H776.869C776.899 66.545 777.034 66.78 777.274 66.96C777.514 67.14 777.809 67.23 778.159 67.23C778.479 67.23 778.724 67.17 778.894 67.05C779.074 66.92 779.164 66.755 779.164 66.555C779.164 66.315 779.039 66.14 778.789 66.03C778.539 65.91 778.134 65.78 777.574 65.64C776.974 65.5 776.474 65.355 776.074 65.205C775.674 65.045 775.329 64.8 775.039 64.47C774.749 64.13 774.604 63.675 774.604 63.105C774.604 62.625 774.734 62.19 774.994 61.8C775.264 61.4 775.654 61.085 776.164 60.855C776.684 60.625 777.299 60.51 778.009 60.51C779.059 60.51 779.884 60.77 780.484 61.29C781.094 61.81 781.444 62.5 781.534 63.36H779.164C779.124 63.07 778.994 62.84 778.774 62.67C778.564 62.5 778.284 62.415 777.934 62.415C777.634 62.415 777.404 62.475 777.244 62.595C777.084 62.705 777.004 62.86 777.004 63.06C777.004 63.3 777.129 63.48 777.379 63.6C777.639 63.72 778.039 63.84 778.579 63.96C779.199 64.12 779.704 64.28 780.094 64.44C780.484 64.59 780.824 64.84 781.114 65.19C781.414 65.53 781.569 65.99 781.579 66.57C781.579 67.06 781.439 67.5 781.159 67.89C780.889 68.27 780.494 68.57 779.974 68.79C779.464 69.01 778.869 69.12 778.189 69.12ZM791.696 69L789.506 65.025H788.891V69H786.326V58.47H790.631C791.461 58.47 792.166 58.615 792.746 58.905C793.336 59.195 793.776 59.595 794.066 60.105C794.356 60.605 794.501 61.165 794.501 61.785C794.501 62.485 794.301 63.11 793.901 63.66C793.511 64.21 792.931 64.6 792.161 64.83L794.591 69H791.696ZM788.891 63.21H790.481C790.951 63.21 791.301 63.095 791.531 62.865C791.771 62.635 791.891 62.31 791.891 61.89C791.891 61.49 791.771 61.175 791.531 60.945C791.301 60.715 790.951 60.6 790.481 60.6H788.891V63.21ZM804.002 64.68C804.002 64.92 803.987 65.17 803.957 65.43H798.152C798.192 65.95 798.357 66.35 798.647 66.63C798.947 66.9 799.312 67.035 799.742 67.035C800.382 67.035 800.827 66.765 801.077 66.225H803.807C803.667 66.775 803.412 67.27 803.042 67.71C802.682 68.15 802.227 68.495 801.677 68.745C801.127 68.995 800.512 69.12 799.832 69.12C799.012 69.12 798.282 68.945 797.642 68.595C797.002 68.245 796.502 67.745 796.142 67.095C795.782 66.445 795.602 65.685 795.602 64.815C795.602 63.945 795.777 63.185 796.127 62.535C796.487 61.885 796.987 61.385 797.627 61.035C798.267 60.685 799.002 60.51 799.832 60.51C800.642 60.51 801.362 60.68 801.992 61.02C802.622 61.36 803.112 61.845 803.462 62.475C803.822 63.105 804.002 63.84 804.002 64.68ZM801.377 64.005C801.377 63.565 801.227 63.215 800.927 62.955C800.627 62.695 800.252 62.565 799.802 62.565C799.372 62.565 799.007 62.69 798.707 62.94C798.417 63.19 798.237 63.545 798.167 64.005H801.377ZM809.12 66.6L810.935 60.63H813.665L810.695 69H807.53L804.56 60.63H807.305L809.12 66.6ZM816.034 59.76C815.584 59.76 815.214 59.63 814.924 59.37C814.644 59.1 814.504 58.77 814.504 58.38C814.504 57.98 814.644 57.65 814.924 57.39C815.214 57.12 815.584 56.985 816.034 56.985C816.474 56.985 816.834 57.12 817.114 57.39C817.404 57.65 817.549 57.98 817.549 58.38C817.549 58.77 817.404 59.1 817.114 59.37C816.834 59.63 816.474 59.76 816.034 59.76ZM817.309 60.63V69H814.744V60.63H817.309ZM827.058 64.68C827.058 64.92 827.043 65.17 827.013 65.43H821.208C821.248 65.95 821.413 66.35 821.703 66.63C822.003 66.9 822.368 67.035 822.798 67.035C823.438 67.035 823.883 66.765 824.133 66.225H826.863C826.723 66.775 826.468 67.27 826.098 67.71C825.738 68.15 825.283 68.495 824.733 68.745C824.183 68.995 823.568 69.12 822.888 69.12C822.068 69.12 821.338 68.945 820.698 68.595C820.058 68.245 819.558 67.745 819.198 67.095C818.838 66.445 818.658 65.685 818.658 64.815C818.658 63.945 818.833 63.185 819.183 62.535C819.543 61.885 820.043 61.385 820.683 61.035C821.323 60.685 822.058 60.51 822.888 60.51C823.698 60.51 824.418 60.68 825.048 61.02C825.678 61.36 826.168 61.845 826.518 62.475C826.878 63.105 827.058 63.84 827.058 64.68ZM824.433 64.005C824.433 63.565 824.283 63.215 823.983 62.955C823.683 62.695 823.308 62.565 822.858 62.565C822.428 62.565 822.063 62.69 821.763 62.94C821.473 63.19 821.293 63.545 821.223 64.005H824.433ZM840.426 60.63L838.161 69H835.326L834.006 63.57L832.641 69H829.821L827.541 60.63H830.106L831.291 66.615L832.701 60.63H835.416L836.841 66.585L838.011 60.63H840.426ZM844.81 69.12C844.08 69.12 843.43 68.995 842.86 68.745C842.29 68.495 841.84 68.155 841.51 67.725C841.18 67.285 840.995 66.795 840.955 66.255H843.49C843.52 66.545 843.655 66.78 843.895 66.96C844.135 67.14 844.43 67.23 844.78 67.23C845.1 67.23 845.345 67.17 845.515 67.05C845.695 66.92 845.785 66.755 845.785 66.555C845.785 66.315 845.66 66.14 845.41 66.03C845.16 65.91 844.755 65.78 844.195 65.64C843.595 65.5 843.095 65.355 842.695 65.205C842.295 65.045 841.95 64.8 841.66 64.47C841.37 64.13 841.225 63.675 841.225 63.105C841.225 62.625 841.355 62.19 841.615 61.8C841.885 61.4 842.275 61.085 842.785 60.855C843.305 60.625 843.92 60.51 844.63 60.51C845.68 60.51 846.505 60.77 847.105 61.29C847.715 61.81 848.065 62.5 848.155 63.36H845.785C845.745 63.07 845.615 62.84 845.395 62.67C845.185 62.5 844.905 62.415 844.555 62.415C844.255 62.415 844.025 62.475 843.865 62.595C843.705 62.705 843.625 62.86 843.625 63.06C843.625 63.3 843.75 63.48 844 63.6C844.26 63.72 844.66 63.84 845.2 63.96C845.82 64.12 846.325 64.28 846.715 64.44C847.105 64.59 847.445 64.84 847.735 65.19C848.035 65.53 848.19 65.99 848.2 66.57C848.2 67.06 848.06 67.5 847.78 67.89C847.51 68.27 847.115 68.57 846.595 68.79C846.085 69.01 845.49 69.12 844.81 69.12Z" fill="#313A86"/>
<path d="M749.224 30.424C749.288 28.712 749.848 27.392 750.904 26.464C751.96 25.536 753.392 25.072 755.2 25.072C756.4 25.072 757.424 25.28 758.272 25.696C759.136 26.112 759.784 26.68 760.216 27.4C760.664 28.12 760.888 28.928 760.888 29.824C760.888 30.88 760.624 31.744 760.096 32.416C759.568 33.072 758.952 33.52 758.248 33.76V33.856C759.16 34.16 759.88 34.664 760.408 35.368C760.936 36.072 761.2 36.976 761.2 38.08C761.2 39.072 760.968 39.952 760.504 40.72C760.056 41.472 759.392 42.064 758.512 42.496C757.648 42.928 756.616 43.144 755.416 43.144C753.496 43.144 751.96 42.672 750.808 41.728C749.672 40.784 749.072 39.36 749.008 37.456H752.992C753.008 38.16 753.208 38.72 753.592 39.136C753.976 39.536 754.536 39.736 755.272 39.736C755.896 39.736 756.376 39.56 756.712 39.208C757.064 38.84 757.24 38.36 757.24 37.768C757.24 37 756.992 36.448 756.496 36.112C756.016 35.76 755.24 35.584 754.168 35.584H753.4V32.248H754.168C754.984 32.248 755.64 32.112 756.136 31.84C756.648 31.552 756.904 31.048 756.904 30.328C756.904 29.752 756.744 29.304 756.424 28.984C756.104 28.664 755.664 28.504 755.104 28.504C754.496 28.504 754.04 28.688 753.736 29.056C753.448 29.424 753.28 29.88 753.232 30.424H749.224ZM768.435 39.208L765.771 46.096H763.155L764.547 39.208H768.435ZM782.838 29.056H775.35V32.368C775.67 32.016 776.118 31.728 776.694 31.504C777.27 31.28 777.894 31.168 778.566 31.168C779.766 31.168 780.758 31.44 781.542 31.984C782.342 32.528 782.926 33.232 783.294 34.096C783.662 34.96 783.846 35.896 783.846 36.904C783.846 38.776 783.318 40.264 782.262 41.368C781.206 42.456 779.718 43 777.798 43C776.518 43 775.406 42.784 774.462 42.352C773.518 41.904 772.79 41.288 772.278 40.504C771.766 39.72 771.486 38.816 771.438 37.792H775.446C775.542 38.288 775.774 38.704 776.142 39.04C776.51 39.36 777.014 39.52 777.654 39.52C778.406 39.52 778.966 39.28 779.334 38.8C779.702 38.32 779.886 37.68 779.886 36.88C779.886 36.096 779.694 35.496 779.31 35.08C778.926 34.664 778.366 34.456 777.63 34.456C777.086 34.456 776.638 34.592 776.286 34.864C775.934 35.12 775.702 35.464 775.59 35.896H771.63V25.456H782.838V29.056ZM786.111 34C786.111 31.248 786.639 29.08 787.695 27.496C788.767 25.912 790.487 25.12 792.855 25.12C795.223 25.12 796.935 25.912 797.991 27.496C799.063 29.08 799.599 31.248 799.599 34C799.599 36.784 799.063 38.968 797.991 40.552C796.935 42.136 795.223 42.928 792.855 42.928C790.487 42.928 788.767 42.136 787.695 40.552C786.639 38.968 786.111 36.784 786.111 34ZM795.567 34C795.567 32.384 795.391 31.144 795.039 30.28C794.687 29.4 793.959 28.96 792.855 28.96C791.751 28.96 791.023 29.4 790.671 30.28C790.319 31.144 790.143 32.384 790.143 34C790.143 35.088 790.207 35.992 790.335 36.712C790.463 37.416 790.719 37.992 791.103 38.44C791.503 38.872 792.087 39.088 792.855 39.088C793.623 39.088 794.199 38.872 794.583 38.44C794.983 37.992 795.247 37.416 795.375 36.712C795.503 35.992 795.567 35.088 795.567 34ZM801.768 34C801.768 31.248 802.296 29.08 803.352 27.496C804.424 25.912 806.144 25.12 808.512 25.12C810.88 25.12 812.592 25.912 813.648 27.496C814.72 29.08 815.256 31.248 815.256 34C815.256 36.784 814.72 38.968 813.648 40.552C812.592 42.136 810.88 42.928 808.512 42.928C806.144 42.928 804.424 42.136 803.352 40.552C802.296 38.968 801.768 36.784 801.768 34ZM811.224 34C811.224 32.384 811.048 31.144 810.696 30.28C810.344 29.4 809.616 28.96 808.512 28.96C807.408 28.96 806.68 29.4 806.328 30.28C805.976 31.144 805.8 32.384 805.8 34C805.8 35.088 805.864 35.992 805.992 36.712C806.12 37.416 806.376 37.992 806.76 38.44C807.16 38.872 807.744 39.088 808.512 39.088C809.28 39.088 809.856 38.872 810.24 38.44C810.64 37.992 810.904 37.416 811.032 36.712C811.16 35.992 811.224 35.088 811.224 34ZM830 36.448H825.824V40.72H821.936V36.448H817.76V32.776H821.936V28.48H825.824V32.776H830V36.448Z" fill="black"/>
<defs>
<filter id="filter0_d_1241_1521" x="0" y="0" width="279" height="98" filterUnits="userSpaceOnUse" color-interpolation-filters="sRGB">
<feFlood flood-opacity="0" result="BackgroundImageFix"/>
<feColorMatrix in="SourceAlpha" type="matrix" values="0 0 0 0 0 0 0 0 0 0 0 0 0 0 0 0 0 0 127 0" result="hardAlpha"/>
<feMorphology radius="3" operator="dilate" in="SourceAlpha" result="effect1_dropShadow_1241_1521"/>
<feOffset dy="1"/>
<feGaussianBlur stdDeviation="2"/>
<feComposite in2="hardAlpha" operator="out"/>
<feColorMatrix type="matrix" values="0 0 0 0 0 0 0 0 0 0 0 0 0 0 0 0 0 0 0.25 0"/>
<feBlend mode="normal" in2="BackgroundImageFix" result="effect1_dropShadow_1241_1521"/>
<feBlend mode="normal" in="SourceGraphic" in2="effect1_dropShadow_1241_1521" result="shape"/>
</filter>
<filter id="filter1_d_1241_1521" x="325" y="0" width="279" height="98" filterUnits="userSpaceOnUse" color-interpolation-filters="sRGB">
<feFlood flood-opacity="0" result="BackgroundImageFix"/>
<feColorMatrix in="SourceAlpha" type="matrix" values="0 0 0 0 0 0 0 0 0 0 0 0 0 0 0 0 0 0 127 0" result="hardAlpha"/>
<feMorphology radius="3" operator="dilate" in="SourceAlpha" result="effect1_dropShadow_1241_1521"/>
<feOffset dy="1"/>
<feGaussianBlur stdDeviation="2"/>
<feComposite in2="hardAlpha" operator="out"/>
<feColorMatrix type="matrix" values="0 0 0 0 0 0 0 0 0 0 0 0 0 0 0 0 0 0 0.25 0"/>
<feBlend mode="normal" in2="BackgroundImageFix" result="effect1_dropShadow_1241_1521"/>
<feBlend mode="normal" in="SourceGraphic" in2="effect1_dropShadow_1241_1521" result="shape"/>
</filter>
<filter id="filter2_d_1241_1521" x="650" y="0" width="279" height="98" filterUnits="userSpaceOnUse" color-interpolation-filters="sRGB">
<feFlood flood-opacity="0" result="BackgroundImageFix"/>
<feColorMatrix in="SourceAlpha" type="matrix" values="0 0 0 0 0 0 0 0 0 0 0 0 0 0 0 0 0 0 127 0" result="hardAlpha"/>
<feMorphology radius="3" operator="dilate" in="SourceAlpha" result="effect1_dropShadow_1241_1521"/>
<feOffset dy="1"/>
<feGaussianBlur stdDeviation="2"/>
<feComposite in2="hardAlpha" operator="out"/>
<feColorMatrix type="matrix" values="0 0 0 0 0 0 0 0 0 0 0 0 0 0 0 0 0 0 0.25 0"/>
<feBlend mode="normal" in2="BackgroundImageFix" result="effect1_dropShadow_1241_1521"/>
<feBlend mode="normal" in="SourceGraphic" in2="effect1_dropShadow_1241_1521" result="shape"/>
</filter>
</defs>
</svg>
