<svg width="24" height="23" viewBox="0 0 24 23" fill="none" xmlns="http://www.w3.org/2000/svg">
<path d="M19.1009 2.85117V0.657933C19.1009 0.294468 18.8002 0 18.4291 0C18.0584 0 17.7573 0.294468 17.7573 0.657933V2.85117C17.7573 3.21464 18.0584 3.5091 18.4291 3.5091C18.8002 3.5091 19.1009 3.21464 19.1009 2.85117Z" fill="black"/>
<path d="M2.97821 2.85117V0.657933C2.97821 0.294468 2.67754 0 2.30642 0C1.93569 0 1.63464 0.294468 1.63464 0.657933V2.85117C1.63464 3.21464 1.93569 3.5091 2.30642 3.5091C2.67754 3.5091 2.97821 3.21464 2.97821 2.85117Z" fill="black"/>
<path d="M8.35247 2.85117V0.657933C8.35247 0.294468 8.05181 0 7.68069 0C7.30996 0 7.00891 0.294468 7.00891 0.657933V2.85117C7.00891 3.21464 7.30996 3.5091 7.68069 3.5091C8.05181 3.5091 8.35247 3.21464 8.35247 2.85117Z" fill="black"/>
<path d="M13.7266 2.85117V0.657933C13.7266 0.294468 13.426 0 13.0548 0C12.6841 0 12.3831 0.294468 12.3831 0.657933V2.85117C12.3831 3.21464 12.6841 3.5091 13.0548 3.5091C13.426 3.5091 13.7266 3.21464 13.7266 2.85117Z" fill="black"/>
<path d="M19.8008 1.755V2.85143C19.8008 3.59232 19.1856 4.19483 18.4291 4.19483C17.6727 4.19483 17.0575 3.59232 17.0575 2.85143V1.755H14.4262V2.85143C14.4262 3.59232 13.811 4.19483 13.0545 4.19483C12.298 4.19483 11.6828 3.59232 11.6828 2.85143V1.755H9.05153V2.85143C9.05153 3.59232 8.43634 4.19483 7.67986 4.19483C6.92339 4.19483 6.3082 3.59232 6.3082 2.85143V1.755H3.6769V2.85143C3.6769 3.59232 3.06171 4.19483 2.30523 4.19483C1.54875 4.19483 0.933564 3.59232 0.933564 2.85143V1.755H0V20.1775H13.1835C12.9737 19.5652 12.8597 18.9103 12.8597 18.2301C12.8597 17.0945 13.1762 16.0308 13.727 15.1177V11.8438H17.7577V12.2382C18.1993 12.1413 18.6586 12.0897 19.1298 12.0897C19.6364 12.0897 20.1292 12.1488 20.6015 12.2608V1.755H19.8008ZM7.00885 15.7914H2.97817V11.8438H7.00885V15.7914ZM7.00885 10.5276H2.97817V6.57998H7.00885V10.5276ZM12.3831 15.7914H8.35241V11.8438H12.3831V15.7914ZM12.3831 10.5276H8.35241V6.57998H12.3831V10.5276ZM17.7577 10.5276H13.727V6.57998H17.7577V10.5276Z" fill="black"/>
<path d="M19.1297 13.4598C16.4399 13.4598 14.2594 15.5954 14.2594 18.2298C14.2594 20.8641 16.4399 23.0001 19.1297 23.0001C21.8195 23.0001 24 20.8645 24 18.2301C24 15.5958 21.8195 13.4598 19.1297 13.4598ZM19.4462 21.9772V21.4527C19.4462 21.2815 19.3045 21.1428 19.1297 21.1428C18.9549 21.1428 18.8133 21.2815 18.8133 21.4527V21.9772C16.9454 21.8278 15.4559 20.3691 15.3035 18.5397H15.839C16.0137 18.5397 16.1554 18.4009 16.1554 18.2298C16.1554 18.0586 16.0137 17.9198 15.839 17.9198H15.3035C15.4559 16.0904 16.9454 14.6317 18.8133 14.4824V15.0068C18.8133 15.178 18.9549 15.3168 19.1297 15.3168C19.3045 15.3168 19.4462 15.178 19.4462 15.0068V14.4827C21.3141 14.6321 22.8035 16.0908 22.956 17.9202H22.4205C22.2457 17.9202 22.104 18.059 22.104 18.2301C22.104 18.4013 22.2457 18.5401 22.4205 18.5401H22.956C22.8035 20.3691 21.3141 21.8278 19.4462 21.9772Z" fill="black"/>
<path d="M18.8822 18.7393C19.1656 18.9697 19.5925 18.898 19.7812 18.5877L21.5197 15.9745L18.8688 17.8457C18.5924 18.0848 18.5989 18.5086 18.8822 18.7393Z" fill="black"/>
</svg>
