<svg width="98" height="26" viewBox="0 0 98 26" fill="none" xmlns="http://www.w3.org/2000/svg">
<rect width="26" height="26" rx="7.5" fill="white"/>
<path d="M16.5413 14.3125L16.9043 11.9598H14.6347V10.4331C14.6347 9.78941 14.9517 9.16201 15.9682 9.16201H17V7.15895C17 7.15895 16.0637 7 15.1684 7C13.2994 7 12.0776 8.12684 12.0776 10.1667V11.9598H10V14.3125H12.0776V20H14.6347V14.3125H16.5413Z" fill="black"/>
<rect x="36" width="26" height="26" rx="7.5" fill="white"/>
<path d="M49.5012 10.6797C47.9405 10.6797 46.6816 11.9389 46.6816 13.5C46.6816 15.0611 47.9405 16.3203 49.5012 16.3203C51.062 16.3203 52.3209 15.0611 52.3209 13.5C52.3209 11.9389 51.062 10.6797 49.5012 10.6797ZM49.5012 15.3335C48.4926 15.3335 47.6681 14.5113 47.6681 13.5C47.6681 12.4887 48.4902 11.6665 49.5012 11.6665C50.5123 11.6665 51.3344 12.4887 51.3344 13.5C51.3344 14.5113 50.5098 15.3335 49.5012 15.3335ZM53.0939 10.5644C53.0939 10.9301 52.7994 11.2222 52.4362 11.2222C52.0706 11.2222 51.7785 10.9276 51.7785 10.5644C51.7785 10.2011 52.073 9.90656 52.4362 9.90656C52.7994 9.90656 53.0939 10.2011 53.0939 10.5644ZM54.9613 11.232C54.9196 10.3508 54.7184 9.57029 54.073 8.9272C53.4301 8.28411 52.6497 8.08284 51.7687 8.03866C50.8607 7.98711 48.1393 7.98711 47.2313 8.03866C46.3528 8.08039 45.5724 8.28166 44.927 8.92475C44.2816 9.56783 44.0828 10.3484 44.0387 11.2296C43.9871 12.1377 43.9871 14.8598 44.0387 15.768C44.0804 16.6492 44.2816 17.4297 44.927 18.0728C45.5724 18.7159 46.3503 18.9172 47.2313 18.9613C48.1393 19.0129 50.8607 19.0129 51.7687 18.9613C52.6497 18.9196 53.4301 18.7183 54.073 18.0728C54.716 17.4297 54.9172 16.6492 54.9613 15.768C55.0129 14.8598 55.0129 12.1402 54.9613 11.232ZM53.7883 16.7424C53.5969 17.2235 53.2264 17.5942 52.7429 17.7881C52.019 18.0753 50.3012 18.009 49.5012 18.009C48.7012 18.009 46.981 18.0728 46.2595 17.7881C45.7785 17.5966 45.408 17.226 45.2141 16.7424C44.927 16.0184 44.9933 14.3002 44.9933 13.5C44.9933 12.6998 44.9294 10.9792 45.2141 10.2576C45.4055 9.77647 45.7761 9.40584 46.2595 9.21193C46.9834 8.92475 48.7012 8.99102 49.5012 8.99102C50.3012 8.99102 52.0215 8.9272 52.7429 9.21193C53.2239 9.40338 53.5945 9.77402 53.7883 10.2576C54.0755 10.9816 54.0092 12.6998 54.0092 13.5C54.0092 14.3002 54.0755 16.0208 53.7883 16.7424Z" fill="black"/>
<rect x="72" width="26" height="26" rx="7.5" fill="white"/>
<path d="M90.7665 10.4922C90.7741 10.6015 90.7741 10.7109 90.7741 10.8203C90.7741 14.1562 88.2995 18 83.7767 18C82.3833 18 81.0888 17.5859 80 16.8672C80.198 16.8906 80.3883 16.8984 80.5939 16.8984C81.7436 16.8984 82.802 16.5 83.6472 15.8203C82.566 15.7969 81.6599 15.0703 81.3477 14.0703C81.5 14.0937 81.6523 14.1094 81.8122 14.1094C82.033 14.1094 82.2538 14.0781 82.4594 14.0234C81.3325 13.789 80.4873 12.7734 80.4873 11.5469V11.5156C80.8147 11.7031 81.1954 11.8203 81.599 11.8359C80.9365 11.3828 80.5025 10.6094 80.5025 9.73436C80.5025 9.26562 80.6243 8.83593 80.8375 8.46093C82.0482 9.99217 83.868 10.9922 85.9086 11.1016C85.8706 10.9141 85.8477 10.7188 85.8477 10.5234C85.8477 9.1328 86.9442 8 88.3071 8C89.0152 8 89.6548 8.30469 90.1041 8.79687C90.6599 8.68751 91.1929 8.47656 91.665 8.1875C91.4822 8.77345 91.0939 9.26564 90.5838 9.57812C91.0787 9.52346 91.5584 9.3828 92 9.18751C91.665 9.68749 91.2462 10.1328 90.7665 10.4922Z" fill="black"/>
</svg>
